<svg id="eFTMHnxiR3E1" xmlns="http://www.w3.org/2000/svg" xmlns:xlink="http://www.w3.org/1999/xlink" viewBox="0 0 2295 889" shape-rendering="geometricPrecision" text-rendering="geometricPrecision"><path id="eFTMHnxiR3E2" d="M2197,114.81L2196.42,90.9L2124.37,90.4399C2128.87,171.5,2128.87,200.77,2128.87,337.66C2155.87,349.37,2185.61,361.53,2197.32,370.08L2253.61,307.49C2237.85,306.14,2211.28,297.14,2196.42,288.58C2196.42,207.97,2196.42,182.76,2197.32,155.29L2197,114.81Z" transform="matrix(1.5 0 0 1.5 -1094.495056 -115.12997)" opacity="0" fill="rgb(247,71,0)" stroke="none" stroke-width="1"/><path id="eFTMHnxiR3E3" d="M1193.92,288.58L1126.37,337.66C1153.37,349.37,1180.87,361.53,1192.57,370.08L1248.86,307.49C1233.1,306.14,1208.78,297.14,1193.92,288.58Z" transform="matrix(1.5 0 0 1.5 -588.947055 -165.515091)" opacity="0" fill="rgb(181,58,37)" stroke="none" stroke-width="1"/><path id="eFTMHnxiR3E4" d="M675.57,142.68L720.36,81.4503L719.71,80.9902L600.37,134.13C604.88,187.26,604.88,232.74,604.88,323.71C635.05,332.71,683.68,351.62,722.88,370.08L775.57,307.49C744.5,302.99,695.42,292.18,672.45,278.67C672.45,221.03,672.45,189.06,675.6,142.67L675.57,142.68Z" transform="matrix(1.5 0 0 1.5 -326.174338 -133.862598)" opacity="0" fill="rgb(247,71,0)" stroke="none" stroke-width="1"/><path id="eFTMHnxiR3E5" d="M440.35,308.08L431.93,305.24C407.16,298.94,382.85,290.83,362.59,278.67C362.59,221.03,363.59,188.95,366.73,142.57L366.9,142.57L411.26,82L409.87,81L290.54,134.13C295.04,187.26,295.04,232.74,295.04,323.71C320.26,330.01,355.83,351.62,388.7,370.08C388.7,370.08,429.23,321.9,439.14,310.19L440.35,308.08Z" transform="matrix(1.5 0 0 1.5 -177.862063 -113.620095)" opacity="0" fill="rgb(247,71,0)" stroke="none" stroke-width="1"/><path id="eFTMHnxiR3E6" d="M1525.81,317L1450.6,306.64C1423.14,299.89,1394.77,291.78,1372.71,278.72C1372.71,221.53,1372.71,189.56,1375.86,144.08L1376.17,144.13L1429,81L1300.67,134.14C1305.17,187.27,1305.17,232.75,1305.17,323.72C1330.38,330.02,1378.57,356.59,1397.48,370.09L1525.81,317Z" transform="matrix(1.5 0 0 1.5 -701.759586 -113.622597)" opacity="0" fill="rgb(247,71,0)" stroke="none" stroke-width="1"/><path id="eFTMHnxiR3E7" d="M2057.51,218.3L2002.27,218.3L1947.34,218.3C1947.79,192.63,1948.69,170.12,1950.49,142.65L1950.82,142.75L1994.68,81L1875.34,134.14C1879.85,187.27,1879.85,232.75,1879.85,323.72C1910.01,332.72,1958.65,351.63,1997.85,370.09L2050.54,307.5C2019.47,303,1970.39,292.19,1947.42,278.68L1947.42,238.14L2004.61,260.66C2023.8,244.15,2033.71,235.15,2057.56,218.33" transform="matrix(1.5 0 0 1.5 -978.364566 -113.622597)" opacity="0" fill="rgb(247,71,0)" stroke="none" stroke-width="1"/><path id="eFTMHnxiR3E8" d="M79.3199,90.8999L190.54,104.4L205.86,27.8499L71.1499,14.3799L79.2899,91.3099L79.3199,90.8999Z" transform="matrix(1.5 0 0 1.5 -68.415974 -42.434976)" opacity="0" fill="rgb(181,58,37)" stroke="none" stroke-width="1"/><path id="eFTMHnxiR3E9" d="M220.72,399.81C216.21,318.75,216.21,260.66,216.21,169.7C190.99,163.4,138.31,136.83,119.4,123.31C119.4,123.31,93.5299,152.09,76.8599,170.66L76.8599,190C100.64,197.18,124.86,205.72,144.17,218.74C144.17,290.79,144.17,327.74,139.66,408.74L220.72,399.81Z" transform="matrix(1.5 0 0 1.5 -58.998517 -112.19005)" opacity="0" fill="rgb(181,58,37)" stroke="none" stroke-width="1"/><path id="eFTMHnxiR3E10" d="M2128.59,338.12C2155.47,349.76,2185.59,361.59,2197.28,370.12L2253.57,307.53C2238.68,306.25,2212.29,296.62,2197.09,288.53L2128.59,338.12Z" transform="matrix(1.5 0 0 1.5 -1095.540039 -164.662499)" opacity="0" fill="rgb(181,58,37)" stroke="none" stroke-width="1"/><path id="eFTMHnxiR3E11" d="M1281.72,740L1266.62,670.69L1188.42,684.02C1173.31,644.92,1166.64,622.7,1156.87,583.6C1179.08,569.83,1227.07,539.17,1247.51,522.29C1283.51,531.17,1319.94,541.84,1349.26,541.84L1330.6,614.26C1302.16,608.04,1261.28,592.49,1234.6,580.94L1259.92,655.58L1327.92,634.7C1339.92,670.7,1347.92,704.01,1355.92,746.7C1327.49,765.81,1301.27,792.46,1285.28,806.7C1238.18,797.82,1212.41,792.93,1163.09,792.93C1170.2,761.38,1183.09,736.06,1195.09,716.93L1281.72,740Z" transform="matrix(1.5 0 0 1.5 -628.19751 -332.247497)" opacity="0" fill="rgb(181,58,37)" stroke="none" stroke-width="1"/><path id="eFTMHnxiR3E12" d="M1493.65,531.15L1532.75,531.15L1526.53,575.15L1492.32,575.15C1491.43,612.48,1491.43,653.79,1491.43,726.22C1506.1,734.66,1530.09,743.55,1545.64,744.88L1490.1,806.64C1478.55,798.2,1451.44,786.2,1424.78,774.64C1424.78,692,1424.78,629.35,1423.9,575.14L1402.57,575.14C1410.57,555.59,1414.57,550.7,1422.57,531.14C1422.13,512.93,1421.24,495.14,1420.35,477.82L1495.88,486.71C1495,503.16,1494.1,517.38,1493.65,531.15Z" transform="matrix(1.5 0 0 1.5 -737.05249 -321.115005)" opacity="0" fill="rgb(181,58,37)" stroke="none" stroke-width="1"/><path id="eFTMHnxiR3E13" d="M1424.78,774.64C1424.78,692,1424.78,629.35,1423.9,575.14L1402.57,575.14C1410.57,555.59,1414.57,550.7,1422.57,531.14C1422.13,512.93,1421.24,495.14,1420.35,477.82L1495.88,486.71C1495,503.15,1494.11,517.37,1493.66,531.14L1532.76,531.14L1526.54,575.14L1492.33,575.14C1491.44,612.47,1491.44,653.78,1491.44,726.21" transform="matrix(1.5 0 0 1.5 -733.832489 -313.115005)" opacity="0" fill="rgb(247,71,0)" stroke="none" stroke-width="1"/><path id="eFTMHnxiR3E14" d="M1198.52,682.28L1268.36,652.98L1259.95,655.56L1234.63,580.92L1244.85,524.4C1223.19,541.62,1178.19,570.4,1156.85,583.58C1166.62,622.68,1173.29,644.9,1188.4,684L1198.52,682.28Z" transform="matrix(1.5 0 0 1.5 -606.30249 -302.100006)" opacity="0" fill="rgb(247,71,0)" stroke="none" stroke-width="1"/><path id="eFTMHnxiR3E15" d="M1281.72,740L1195.08,716.9C1183.08,736.01,1170.2,761.33,1163.08,792.9C1212.4,792.9,1238.17,797.79,1285.27,806.67C1301.05,792.67,1326.79,766.51,1354.79,747.47L1281.72,740Z" transform="matrix(1.5 0 0 1.5 -629.467499 -380.892502)" opacity="0" fill="rgb(247,71,0)" stroke="none" stroke-width="1"/><path id="eFTMHnxiR3E16" d="M1107,552.75L1106.09,657.67C1081.78,674.79,1071.87,683.8,1052.51,700.46L995.32,677.94L995.32,718.47C1018.32,731.98,1067.32,742.79,1098.44,747.29L1045.75,809.88C1006.58,791.42,957.94,772.51,927.75,763.5C927.75,672.5,927.75,627.05,923.25,573.92L1042.59,520.79C1061.52,534.29,1079.07,539.7,1107,552.75ZM1050.25,658.12L1050.25,603.19C1034.04,595.09,1019.18,589.19,998.47,582.48C996.67,609.94,995.77,632.48,995.32,658.12L1050.25,658.12Z" transform="matrix(1.5 0 0 1.5 -507.5625 -332.667495)" opacity="0" fill="rgb(247,71,0)" stroke="none" stroke-width="1"/><path id="eFTMHnxiR3E17" d="M1001.38,582.48L1001.31,583.42C1020.53,589.78,1034.81,595.47,1050.25,603.19L1050.25,658.12L1105.46,658.12L1106.09,657.67L1107,552.75C1080.35,540.3,1063.15,534.75,1045.2,522.58L1001.38,582.48Z" transform="matrix(1.5 0 0 1.5 -527.077499 -295.175003)" opacity="0" fill="rgb(181,58,37)" stroke="none" stroke-width="1"/><path id="eFTMHnxiR3E18" d="M831.645,814.341L832.286,813.965C831.395,710.524,832.286,674.394,834.949,563.855L858.977,563.855L878.11,513.139L836.291,513.139L841.5,470C868.642,461.384,890.046,447.036,910.5,444C909.619,443.486,855.543,410.699,844,396C832.426,405.632,792.7,418.315,766.009,431.519C767.34,457.379,768.682,484.757,769.573,513.15L769.132,513.15L750,563.866L771.355,563.866C771.605,572.722,771.846,581.213,772.076,589.441L763.125,589.441C764.026,652.14,764.026,776.019,764.026,871.596C791.058,884.96,787.955,879.231,799.668,889L863.743,829.657C847.965,828.105,846.523,825.354,831.645,815.597L831.645,814.341Z" transform="matrix(1.5 0 0 1.5 -415.125 -321.25)" opacity="0" fill="rgb(181,58,37)" stroke="none" stroke-width="1"/><path id="eFTMHnxiR3E19" d="M841,477.5L865.5,464L909.065,492.312L939.538,445.77C939.523,445.498,939.415,444.501,939.381,444.277L851.773,387.44C826.868,403.099,779.984,424.52,760,433L841,477.5Z" transform="matrix(1.5 0 0 1.5 -424.884506 -219.938003)" opacity="0" fill="rgb(181,58,37)" stroke="none" stroke-width="1"/><path id="eFTMHnxiR3E20" d="M836.406,513.253L841,477L851,388C842.798,394.854,807.289,410.684,789.15,419.96L789.15,419.617L759.532,432.857C760.424,452.916,761.336,473.501,761.788,494.542C761.497,494.862,761.487,502.458,761.607,513.208L727.547,513.208L710,563.973L762.499,563.973C762.82,578.526,763.101,589.572,763.101,589.572C764.004,652.331,764.003,776.33,764.003,872L831.724,815.946L831.724,814.701L832.365,814.324C831.473,710.784,832.365,674.618,835.032,563.973L878.257,563.973L898,513.253L836.406,513.253Z" transform="matrix(1.5 0 0 1.5 -402 -315)" opacity="0" fill="rgb(247,71,0)" stroke="none" stroke-width="1"/><path id="eFTMHnxiR3E21" d="M79.2898,91.3099L71.1498,14.3799L70.7598,14.3799C50.0498,31.4999,24.8298,51.2999,2.31978,65.2599C6.81978,146.32,5.01977,276.01,0.509766,361.12L81.1198,361.12C78.9798,320.47,77.4198,273.62,76.8598,226.81L76.8598,144.93L79.2898,91.3099Z" transform="matrix(1.5 0 0 1.5 -20.080656 -112.19005)" opacity="0" fill="rgb(247,71,0)" stroke="none" stroke-width="1"/><path id="eFTMHnxiR3E22" d="M917.62,138.29C919.44,86.2898,919.62,46.7598,921.46,14.3398L844.91,23.3398C849.41,104.34,848.52,224.17,848.52,361.07L917,361.07L917,239.5L917.62,138.29Z" transform="matrix(1.5 0 0 1.5 -436.732059 -94.702546)" opacity="0" fill="rgb(247,71,0)" stroke="none" stroke-width="1"/><path id="eFTMHnxiR3E23" d="M1045.29,230.49C1029.99,223.73,1012.87,215.63,998.92,208.43L1035.83,194.43L1035.83,113.86C1001.62,102.6,989.91,95.8602,965.14,80.9902C965.14,80.9902,933.76,115.57,917.97,133.35L917.86,145.35C939.48,149.35,948.93,151.21,968.3,156.6L968.3,180.5C968.3,184.99,937.4,209.63,917.13,227.63L917.04,238.31L918.04,239.1C944.04,248.54,963.84,256.62,977.77,262.91C977.77,285.43,977.32,343.51,977.32,362.43L1045.32,370.53C1043,335.87,1043,270.12,1045.29,230.49Z" transform="matrix(1.5 0 0 1.5 -485.729541 -113.730145)" opacity="0" fill="rgb(181,58,37)" stroke="none" stroke-width="1"/><path id="eFTMHnxiR3E24" d="M675.57,142.68C703.94,152.13,721.96,159.34,746.27,174.2L784.1,113C756.5,100.09,739.03,94.65,720.36,81.48L675.57,142.68Z" transform="matrix(1.5 0 0 1.5 -360.057056 -64.770098)" opacity="0" fill="rgb(181,58,37)" stroke="none" stroke-width="1"/><path id="eFTMHnxiR3E25" d="M502.64,288.58C501.9,208.06,502.18,189.06,502.18,127.37C477.53,121.2,431,95.71,411.27,82L366.85,142.73L366.91,142.95C394.59,147.95,411.99,155.48,434.64,165.25C434.64,206.25,433.53,242.69,431.93,305.25L440.35,308.09L439.29,310.44C456.84,339.15,481.05,362.01,492.29,370.09L548.57,307.5C533.26,305.24,517.49,297.14,502.64,288.58Z" transform="matrix(1.5 0 0 1.5 -223.994563 -113.872597)" opacity="0" fill="rgb(181,58,37)" stroke="none" stroke-width="1"/><path id="eFTMHnxiR3E26" d="M1126.37,337.66C1126.37,253.91,1126.37,190.41,1125.48,135.47L1103.86,135.47C1111.96,115.66,1116.02,110.71,1124.12,90.8999C1123.67,72.4299,1122.77,54.4199,1121.87,36.8999L1198.42,45.8999C1197.53,62.5599,1196.62,76.9699,1196.17,90.8999L1235.79,90.8999L1229.49,135.47L1194.82,135.47C1193.92,173.3,1193.92,215.18,1193.92,288.58L1126.37,337.66Z" transform="matrix(1.5 0 0 1.5 -580.052066 -94.490072)" opacity="0" fill="rgb(247,71,0)" stroke="none" stroke-width="1"/><path id="eFTMHnxiR3E27" d="M1376,144.34L1380.41,144.87C1406.46,149.75,1432.95,156.25,1453.81,165.2C1453.81,207.52,1453.81,240.84,1450.65,306.59L1525.81,317C1521.31,235.94,1521.31,189.11,1521.31,127.42C1496.09,121.11,1447.9,94.54,1428.99,81.04L1376,144.34Z" transform="matrix(1.5 0 0 1.5 -720.592075 -100.360096)" opacity="0" fill="rgb(181,58,37)" stroke="none" stroke-width="1"/><path id="eFTMHnxiR3E28" d="M1664,135C1666.62,77.1101,1665.7,30.2201,1666.75,0.850098L1595.6,23.3701C1596.95,104.37,1596.05,262.03,1596.05,323.73C1621.27,330.03,1669.46,356.6,1688.37,370.1L1807.73,317L1807.73,316.86L1732.28,308.57L1732.28,308.4C1704.05,303.4,1686.53,295.8,1663.63,285.92C1663.63,263.92,1663.63,205.77,1664.08,145.43L1664,135Z" transform="matrix(1.5 0 0 1.5 -845.972049 -93.587624)" opacity="0" fill="rgb(247,71,0)" stroke="none" stroke-width="1"/><path id="eFTMHnxiR3E29" d="M1807.72,316.81C1803.23,263.74,1803.23,218.25,1803.23,127.37C1778,121.06,1742.43,99.4502,1709.56,80.9902C1709.56,80.9902,1678.76,117.45,1664.25,134.82L1664.25,145.42C1689.86,151.72,1714.59,160.26,1735.71,172.42C1735.71,229.53,1734.65,262.56,1732.3,308.54L1807.72,316.81Z" transform="matrix(1.5 0 0 1.5 -863.132053 -100.300145)" opacity="0" fill="rgb(181,58,37)" stroke="none" stroke-width="1"/><path id="eFTMHnxiR3E30" d="M1950.6,143.1L1953.48,144.01C1972.71,150.37,1986.41,155.25,2001.85,163.01L2001.85,217.95L2057.48,218.37C2057.7,218.21,2058.48,217.58,2058.65,217.43L2059,113C2032.35,100.54,2012.8,93,1994.85,80.79L1950.6,143.1Z" transform="matrix(1.5 0 0 1.5 -997.539554 -75.640095)" opacity="0" fill="rgb(181,58,37)" stroke="none" stroke-width="1"/><path id="eFTMHnxiR3E31" d="M2223.85,81.8901L2197.73,114.31L2197.09,115.02L2197.09,154.93L2200.3,156.58C2214.22,162.445,2227.81,169.078,2241,176.45L2295,114.76C2273.83,104.4,2245.91,92.6901,2223.85,81.8901Z" transform="matrix(1.5 0 0 1.5 -1123.022522 -64.585024)" opacity="0" fill="rgb(181,58,37)" stroke="none" stroke-width="1"/><path id="eFTMHnxiR3E32" d="M319.56,685.86L387,596.22L398.21,548.6C379.11,555.22,360.77,566.17,344.21,576.1L321.04,537.1C344.46,530.48,360.51,524.1,383.43,515.45L445.82,551.62L420.61,621.9L369.68,676.4C393.61,676.4,418.06,676.65,440.22,673.34L427.48,711.54L334.07,711.54L319.56,685.86Z" transform="matrix(1.5 0 0 1.5 -191.345001 -306.747497)" opacity="0" fill="rgb(103,118,98)" stroke="none" stroke-width="1"/><path id="eFTMHnxiR3E33" d="M613.18,546.82C613.18,581.71,613.44,640.82,615.99,686.63L543.41,716.63C532.71,708.99,505.46,693.96,491.2,690.4C491.2,638.95,490.95,580.64,488.4,550.59L560.98,520.59C571.67,528.23,598.92,543.25,613.18,546.82ZM573.46,680.77C575.24,643.59,574.98,592.15,574.98,568.21C562.51,562.86,546.46,559.04,530.93,556.21C529.15,582.69,529.4,632.61,529.4,664.95C541.88,672.37,557.92,677,573.46,680.77L573.46,680.77Z" transform="matrix(1.5 0 0 1.5 -276.097496 -309.305008)" opacity="0" fill="rgb(103,118,98)" stroke="none" stroke-width="1"/><path id="eFTMHnxiR3E34" d="M1651.08,685.86L1718.57,596.22L1729.77,548.6C1710.67,555.22,1692.34,566.17,1675.77,576.1L1652.6,537.1C1676.03,530.48,1692.07,524.1,1714.99,515.45L1777.38,551.62L1752.17,621.9L1701.24,676.4C1725.18,676.4,1749.63,676.65,1771.78,673.34L1759.05,711.54L1665.6,711.54L1651.08,685.86Z" transform="matrix(1.5 0 0 1.5 -857.11499 -306.747497)" opacity="0" fill="rgb(103,118,98)" stroke="none" stroke-width="1"/><path id="eFTMHnxiR3E35" d="M1833.17,716.93C1833.17,697.07,1831.38,605.64,1831.38,571.27L1854.05,556.49L1819.92,556.49L1826.55,520.59L1872.38,520.59L1869.58,556.24C1869.84,612.01,1870.35,687.39,1872.38,711.84L1833.17,716.93Z" transform="matrix(1.5 0 0 1.5 -923.075012 -309.380005)" opacity="0" fill="rgb(103,118,98)" stroke="none" stroke-width="1"/><script><![CDATA[!function(t,n){"object"==typeof exports&&"undefined"!=typeof module?module.exports=n():"function"==typeof define&&define.amd?define(n):(t="undefined"!=typeof globalThis?globalThis:t||self).__SVGATOR_PLAYER__=n()}(this,(function(){"use strict";function t(n){return(t="function"==typeof Symbol&&"symbol"==typeof Symbol.iterator?function(t){return typeof t}:function(t){return t&&"function"==typeof Symbol&&t.constructor===Symbol&&t!==Symbol.prototype?"symbol":typeof t})(n)}function n(t,n){if(!(t instanceof n))throw new TypeError("Cannot call a class as a function")}function r(t,n){for(var r=0;r<n.length;r++){var e=n[r];e.enumerable=e.enumerable||!1,e.configurable=!0,"value"in e&&(e.writable=!0),Object.defineProperty(t,e.key,e)}}function e(t,n,e){return n&&r(t.prototype,n),e&&r(t,e),t}function i(t){return(i=Object.setPrototypeOf?Object.getPrototypeOf:function(t){return t.__proto__||Object.getPrototypeOf(t)})(t)}function o(t,n){return(o=Object.setPrototypeOf||function(t,n){return t.__proto__=n,t})(t,n)}function u(t,n){return!n||"object"!=typeof n&&"function"!=typeof n?function(t){if(void 0===t)throw new ReferenceError("this hasn't been initialised - super() hasn't been called");return t}(t):n}function a(t){var n=function(){if("undefined"==typeof Reflect||!Reflect.construct)return!1;if(Reflect.construct.sham)return!1;if("function"==typeof Proxy)return!0;try{return Boolean.prototype.valueOf.call(Reflect.construct(Boolean,[],(function(){}))),!0}catch(t){return!1}}();return function(){var r,e=i(t);if(n){var o=i(this).constructor;r=Reflect.construct(e,arguments,o)}else r=e.apply(this,arguments);return u(this,r)}}function l(t,n,r){return(l="undefined"!=typeof Reflect&&Reflect.get?Reflect.get:function(t,n,r){var e=function(t,n){for(;!Object.prototype.hasOwnProperty.call(t,n)&&null!==(t=i(t)););return t}(t,n);if(e){var o=Object.getOwnPropertyDescriptor(e,n);return o.get?o.get.call(r):o.value}})(t,n,r||t)}var f=s(Math.pow(10,-6));function s(t){var n=arguments.length>1&&void 0!==arguments[1]?arguments[1]:6;if(Number.isInteger(t))return t;var r=Math.pow(10,n);return Math.round((+t+Number.EPSILON)*r)/r}function c(t,n){var r=arguments.length>2&&void 0!==arguments[2]?arguments[2]:f;return Math.abs(t-n)<r}var h=Math.PI/180;function v(t){return t}function y(t,n,r){var e=1-r;return 3*r*e*(t*e+n*r)+r*r*r}function d(){var t=arguments.length>0&&void 0!==arguments[0]?arguments[0]:0,n=arguments.length>1&&void 0!==arguments[1]?arguments[1]:0,r=arguments.length>2&&void 0!==arguments[2]?arguments[2]:1,e=arguments.length>3&&void 0!==arguments[3]?arguments[3]:1;return t<0||t>1||r<0||r>1?null:c(t,n)&&c(r,e)?v:function(i){if(i<=0)return t>0?i*n/t:0===n&&r>0?i*e/r:0;if(i>=1)return r<1?1+(i-1)*(e-1)/(r-1):1===r&&t<1?1+(i-1)*(n-1)/(t-1):1;for(var o,u=0,a=1;u<a;){var l=y(t,r,o=(u+a)/2);if(c(i,l))break;l<i?u=o:a=o}return y(n,e,o)}}function g(){return 1}function p(t){return 1===t?1:0}function m(){var t=arguments.length>0&&void 0!==arguments[0]?arguments[0]:1,n=arguments.length>1&&void 0!==arguments[1]?arguments[1]:0;if(1===t){if(0===n)return p;if(1===n)return g}var r=1/t;return function(t){return t>=1?1:(t+=n*r)-t%r}}function b(t,n,r){return t>=.5?r:n}function w(t,n,r){return 0===t||n===r?n:t*(r-n)+n}function x(t,n,r){var e=w(t,n,r);return e<=0?0:e}function k(t,n,r){return 0===t?n:1===t?r:{x:w(t,n.x,r.x),y:w(t,n.y,r.y)}}function A(t,n,r){var e=function(t,n,r){return Math.round(w(t,n,r))}(t,n,r);return e<=0?0:e>=255?255:e}function S(t,n,r){return 0===t?n:1===t?r:{r:A(t,n.r,r.r),g:A(t,n.g,r.g),b:A(t,n.b,r.b),a:w(t,null==n.a?1:n.a,null==r.a?1:r.a)}}function _(t,n,r){if(0===t)return n;if(1===t)return r;var e=n.length;if(e!==r.length)return b(t,n,r);for(var i=[],o=0;o<e;o++)i.push(S(t,n[o],r[o]));return i}function O(t,n){for(var r=[],e=0;e<t;e++)r.push(n);return r}function M(t,n){if(--n<=0)return t;var r=(t=Object.assign([],t)).length;do{for(var e=0;e<r;e++)t.push(t[e])}while(--n>0);return t}var j,P=function(){function t(r){n(this,t),this.list=r,this.length=r.length}return e(t,[{key:"setAttribute",value:function(t,n){for(var r=this.list,e=0;e<this.length;e++)r[e].setAttribute(t,n)}},{key:"removeAttribute",value:function(t){for(var n=this.list,r=0;r<this.length;r++)n[r].removeAttribute(t)}},{key:"style",value:function(t,n){for(var r=this.list,e=0;e<this.length;e++)r[e].style[t]=n}}]),t}(),I=/-./g,E=function(t,n){return n.toUpperCase()};function F(t){return"function"==typeof t?t:b}function N(t){return t?"function"==typeof t?t:Array.isArray(t)?function(t){var n=arguments.length>1&&void 0!==arguments[1]?arguments[1]:v;if(!Array.isArray(t))return n;switch(t.length){case 1:return m(t[0])||n;case 2:return m(t[0],t[1])||n;case 4:return d(t[0],t[1],t[2],t[3])||n}return n}(t,null):function(t,n){var r=arguments.length>2&&void 0!==arguments[2]?arguments[2]:v;switch(t){case"linear":return v;case"steps":return m(n.steps||1,n.jump||0)||r;case"bezier":case"cubic-bezier":return d(n.x1||0,n.y1||0,n.x2||0,n.y2||0)||r}return r}(t.type,t.value,null):null}function B(t,n,r){var e=arguments.length>3&&void 0!==arguments[3]&&arguments[3],i=n.length-1;if(t<=n[0].t)return e?[0,0,n[0].v]:n[0].v;if(t>=n[i].t)return e?[i,1,n[i].v]:n[i].v;var o,u=n[0],a=null;for(o=1;o<=i;o++){if(!(t>n[o].t)){a=n[o];break}u=n[o]}return null==a?e?[i,1,n[i].v]:n[i].v:u.t===a.t?e?[o,1,a.v]:a.v:(t=(t-u.t)/(a.t-u.t),u.e&&(t=u.e(t)),e?[o,t,r(t,u.v,a.v)]:r(t,u.v,a.v))}function R(t,n){var r=arguments.length>2&&void 0!==arguments[2]?arguments[2]:null;return t&&t.length?"function"!=typeof n?null:("function"!=typeof r&&(r=null),function(e){var i=B(e,t,n);return null!=i&&r&&(i=r(i)),i}):null}function q(t,n){return t.t-n.t}function T(n,r,e,i,o){var u,a="@"===e[0],l="#"===e[0],f=j[e],s=b;switch(a?(u=e.substr(1),e=u.replace(I,E)):l&&(e=e.substr(1)),t(f)){case"function":if(s=f(i,o,B,N,e,a,r,n),l)return s;break;case"string":s=R(i,F(f));break;case"object":if((s=R(i,F(f.i),f.f))&&"function"==typeof f.u)return f.u(r,s,e,a,n)}return s?function(t,n,r){var e=arguments.length>3&&void 0!==arguments[3]&&arguments[3];if(e)return t instanceof P?function(e){return t.style(n,r(e))}:function(e){return t.style[n]=r(e)};if(Array.isArray(n)){var i=n.length;return function(e){var o=r(e);if(null==o)for(var u=0;u<i;u++)t[u].removeAttribute(n);else for(var a=0;a<i;a++)t[a].setAttribute(n,o)}}return function(e){var i=r(e);null==i?t.removeAttribute(n):t.setAttribute(n,i)}}(r,e,s,a):null}function L(n,r,e,i){if(!i||"object"!==t(i))return null;var o=null,u=null;return Array.isArray(i)?u=function(t){if(!t||!t.length)return null;for(var n=0;n<t.length;n++)t[n].e&&(t[n].e=N(t[n].e));return t.sort(q)}(i):(u=i.keys,o=i.data||null),u?T(n,r,e,u,o):null}function C(t,n,r){if(!r)return null;var e=[];for(var i in r)if(r.hasOwnProperty(i)){var o=L(t,n,i,r[i]);o&&e.push(o)}return e.length?e:null}function z(t,n){if(!n.duration||n.duration<0)return null;var r=function(t,n){if(!n)return null;var r=[];if(Array.isArray(n))for(var e=n.length,i=0;i<e;i++){var o=n[i];if(2===o.length){var u=null;if("string"==typeof o[0])u=t.getElementById(o[0]);else if(Array.isArray(o[0])){u=[];for(var a=0;a<o[0].length;a++)if("string"==typeof o[0][a]){var l=t.getElementById(o[0][a]);l&&u.push(l)}u=u.length?1===u.length?u[0]:new P(u):null}if(u){var f=C(t,u,o[1]);f&&(r=r.concat(f))}}}else for(var s in n)if(n.hasOwnProperty(s)){var c=t.getElementById(s);if(c){var h=C(t,c,n[s]);h&&(r=r.concat(h))}}return r.length?r:null}(t,n.elements);return r?function(t,n){var r=arguments.length>2&&void 0!==arguments[2]?arguments[2]:1/0,e=arguments.length>3&&void 0!==arguments[3]?arguments[3]:1,i=arguments.length>4&&void 0!==arguments[4]&&arguments[4],o=arguments.length>5&&void 0!==arguments[5]?arguments[5]:1,u=t.length,a=e>0?n:0;i&&r%2==0&&(a=n-a);var l=null;return function(f,s){var c=f%n,h=1+(f-c)/n;s*=e,i&&h%2==0&&(s=-s);var v=!1;if(h>r)c=a,v=!0,-1===o&&(c=e>0?0:n);else if(s<0&&(c=n-c),c===l)return!1;l=c;for(var y=0;y<u;y++)t[y](c);return v}}(r,n.duration,n.iterations||1/0,n.direction||1,!!n.alternate,n.fill||1):null}Number.isInteger||(Number.isInteger=function(t){return"number"==typeof t&&isFinite(t)&&Math.floor(t)===t}),Number.EPSILON||(Number.EPSILON=2220446049250313e-31);var D=function(){function t(r,e){var i=arguments.length>2&&void 0!==arguments[2]?arguments[2]:{};n(this,t),this._id=0,this._running=!1,this._rollingBack=!1,this._animations=r,this.duration=e.duration,this.alternate=e.alternate,this.fill=e.fill,this.iterations=e.iterations,this.direction=i.direction||1,this.speed=i.speed||1,this.fps=i.fps||100,this.offset=i.offset||0,this.rollbackStartOffset=0}return e(t,[{key:"_rollback",value:function(){var t=this,n=1/0,r=null;this.rollbackStartOffset=this.offset,this._rollingBack||(this._rollingBack=!0,this._running=!0);this._id=window.requestAnimationFrame((function e(i){if(t._rollingBack){null==r&&(r=i);var o=i-r,u=t.rollbackStartOffset-o,a=Math.round(u*t.speed);if(a>t.duration&&n!=1/0){var l=!!t.alternate&&a/t.duration%2>1,f=a%t.duration;a=(f+=l?t.duration:0)||t.duration}var s=t.fps?1e3/t.fps:0,c=Math.max(0,a);if(c<n-s){t.offset=c,n=c;for(var h=t._animations,v=h.length,y=0;y<v;y++)h[y](c,t.direction)}var d=!1;if(t.iterations>0&&-1===t.fill){var g=t.iterations*t.duration,p=g==a;a=p?0:a,t.offset=p?0:t.offset,d=a>g}a>0&&t.offset>=a&&!d?t._id=window.requestAnimationFrame(e):t.stop()}}))}},{key:"_start",value:function(){var t=this,n=arguments.length>0&&void 0!==arguments[0]?arguments[0]:0,r=-1/0,e=null,i={},o=function o(u){t._running=!0,null==e&&(e=u);var a=Math.round((u-e+n)*t.speed),l=t.fps?1e3/t.fps:0;if(a>r+l&&!t._rollingBack){t.offset=a,r=a;for(var f=t._animations,s=f.length,c=0,h=0;h<s;h++)i[h]?c++:(i[h]=f[h](a,t.direction),i[h]&&c++);if(c===s)return void t._stop()}t._id=window.requestAnimationFrame(o)};this._id=window.requestAnimationFrame(o)}},{key:"_stop",value:function(){this._id&&window.cancelAnimationFrame(this._id),this._running=!1,this._rollingBack=!1}},{key:"play",value:function(){!this._rollingBack&&this._running||(this._rollingBack=!1,this.rollbackStartOffset>this.duration&&(this.offset=this.rollbackStartOffset-(this.rollbackStartOffset-this.offset)%this.duration,this.rollbackStartOffset=0),this._start(this.offset))}},{key:"stop",value:function(){this._stop(),this.offset=0,this.rollbackStartOffset=0;var t=this.direction,n=this._animations;window.requestAnimationFrame((function(){for(var r=0;r<n.length;r++)n[r](0,t)}))}},{key:"reachedToEnd",value:function(){return this.iterations>0&&this.offset>=this.iterations*this.duration}},{key:"restart",value:function(){this._stop(),this.offset=0,this._start()}},{key:"pause",value:function(){this._stop()}},{key:"reverse",value:function(){this.direction=-this.direction}}],[{key:"build",value:function(n,r){return(n=function(t,n){if(j=n,!t||!t.root||!Array.isArray(t.animations))return null;for(var r=document.getElementsByTagName("svg"),e=!1,i=0;i<r.length;i++)if(r[i].id===t.root&&!r[i].svgatorAnimation){(e=r[i]).svgatorAnimation=!0;break}if(!e)return null;var o=t.animations.map((function(t){return z(e,t)})).filter((function(t){return!!t}));return o.length?{element:e,animations:o,animationSettings:t.animationSettings,options:t.options||void 0}:null}(n,r))?{el:n.element,options:n.options||{},player:new t(n.animations,n.animationSettings,n.options)}:null}}]),t}();function Q(t){return s(t)+""}function U(t){var n=arguments.length>1&&void 0!==arguments[1]?arguments[1]:" ";return t&&t.length?t.map(Q).join(n):""}function V(t){return t?null==t.a||t.a>=1?"rgb("+t.r+","+t.g+","+t.b+")":"rgba("+t.r+","+t.g+","+t.b+","+t.a+")":"transparent"}!function(){for(var t=0,n=["ms","moz","webkit","o"],r=0;r<n.length&&!window.requestAnimationFrame;++r)window.requestAnimationFrame=window[n[r]+"RequestAnimationFrame"],window.cancelAnimationFrame=window[n[r]+"CancelAnimationFrame"]||window[n[r]+"CancelRequestAnimationFrame"];window.requestAnimationFrame||(window.requestAnimationFrame=function(n){var r=Date.now(),e=Math.max(0,16-(r-t)),i=window.setTimeout((function(){n(r+e)}),e);return t=r+e,i},window.cancelAnimationFrame=window.clearTimeout)}();var G={f:null,i:function(t,n,r){return 0===t?n:1===t?r:{x:x(t,n.x,r.x),y:x(t,n.y,r.y)}},u:function(t,n){return function(r){var e=n(r);t.setAttribute("rx",Q(e.x)),t.setAttribute("ry",Q(e.y))}}},H={f:null,i:function(t,n,r){return 0===t?n:1===t?r:{width:x(t,n.width,r.width),height:x(t,n.height,r.height)}},u:function(t,n){return function(r){var e=n(r);t.setAttribute("width",Q(e.width)),t.setAttribute("height",Q(e.height))}}},Y=Math.sin,Z=Math.cos,J=Math.acos,K=Math.asin,W=Math.tan,X=Math.atan2,$=Math.PI/180,tt=180/Math.PI,nt=Math.sqrt,rt=function(){function t(){var r=arguments.length>0&&void 0!==arguments[0]?arguments[0]:1,e=arguments.length>1&&void 0!==arguments[1]?arguments[1]:0,i=arguments.length>2&&void 0!==arguments[2]?arguments[2]:0,o=arguments.length>3&&void 0!==arguments[3]?arguments[3]:1,u=arguments.length>4&&void 0!==arguments[4]?arguments[4]:0,a=arguments.length>5&&void 0!==arguments[5]?arguments[5]:0;n(this,t),this.m=[r,e,i,o,u,a],this.i=null,this.w=null,this.s=null}return e(t,[{key:"determinant",get:function(){var t=this.m;return t[0]*t[3]-t[1]*t[2]}},{key:"isIdentity",get:function(){if(null===this.i){var t=this.m;this.i=1===t[0]&&0===t[1]&&0===t[2]&&1===t[3]&&0===t[4]&&0===t[5]}return this.i}},{key:"point",value:function(t,n){var r=this.m;return{x:r[0]*t+r[2]*n+r[4],y:r[1]*t+r[3]*n+r[5]}}},{key:"translateSelf",value:function(){var t=arguments.length>0&&void 0!==arguments[0]?arguments[0]:0,n=arguments.length>1&&void 0!==arguments[1]?arguments[1]:0;if(!t&&!n)return this;var r=this.m;return r[4]+=r[0]*t+r[2]*n,r[5]+=r[1]*t+r[3]*n,this.w=this.s=this.i=null,this}},{key:"rotateSelf",value:function(){var t=arguments.length>0&&void 0!==arguments[0]?arguments[0]:0;if(t%=360){var n=Y(t*=$),r=Z(t),e=this.m,i=e[0],o=e[1];e[0]=i*r+e[2]*n,e[1]=o*r+e[3]*n,e[2]=e[2]*r-i*n,e[3]=e[3]*r-o*n,this.w=this.s=this.i=null}return this}},{key:"scaleSelf",value:function(){var t=arguments.length>0&&void 0!==arguments[0]?arguments[0]:1,n=arguments.length>1&&void 0!==arguments[1]?arguments[1]:1;if(1!==t||1!==n){var r=this.m;r[0]*=t,r[1]*=t,r[2]*=n,r[3]*=n,this.w=this.s=this.i=null}return this}},{key:"skewSelf",value:function(t,n){if(n%=360,(t%=360)||n){var r=this.m,e=r[0],i=r[1],o=r[2],u=r[3];t&&(t=W(t*$),r[2]+=e*t,r[3]+=i*t),n&&(n=W(n*$),r[0]+=o*n,r[1]+=u*n),this.w=this.s=this.i=null}return this}},{key:"resetSelf",value:function(){var t=arguments.length>0&&void 0!==arguments[0]?arguments[0]:1,n=arguments.length>1&&void 0!==arguments[1]?arguments[1]:0,r=arguments.length>2&&void 0!==arguments[2]?arguments[2]:0,e=arguments.length>3&&void 0!==arguments[3]?arguments[3]:1,i=arguments.length>4&&void 0!==arguments[4]?arguments[4]:0,o=arguments.length>5&&void 0!==arguments[5]?arguments[5]:0,u=this.m;return u[0]=t,u[1]=n,u[2]=r,u[3]=e,u[4]=i,u[5]=o,this.w=this.s=this.i=null,this}},{key:"recomposeSelf",value:function(){var t=arguments.length>0&&void 0!==arguments[0]?arguments[0]:null,n=arguments.length>1&&void 0!==arguments[1]?arguments[1]:null,r=arguments.length>2&&void 0!==arguments[2]?arguments[2]:null,e=arguments.length>3&&void 0!==arguments[3]?arguments[3]:null,i=arguments.length>4&&void 0!==arguments[4]?arguments[4]:null;return this.isIdentity||this.resetSelf(),t&&(t.x||t.y)&&this.translateSelf(t.x,t.y),n&&this.rotateSelf(n),r&&(r.x&&this.skewSelf(r.x,0),r.y&&this.skewSelf(0,r.y)),!e||1===e.x&&1===e.y||this.scaleSelf(e.x,e.y),i&&(i.x||i.y)&&this.translateSelf(i.x,i.y),this}},{key:"decompose",value:function(){var t=arguments.length>0&&void 0!==arguments[0]?arguments[0]:0,n=arguments.length>1&&void 0!==arguments[1]?arguments[1]:0,r=this.m,e=r[0]*r[0]+r[1]*r[1],i=[[r[0],r[1]],[r[2],r[3]]],o=nt(e);if(0===o)return{origin:{x:s(r[4]),y:s(r[5])},translate:{x:s(t),y:s(n)},scale:{x:0,y:0},skew:{x:0,y:0},rotate:0};i[0][0]/=o,i[0][1]/=o;var u=r[0]*r[3]-r[1]*r[2]<0;u&&(o=-o);var a=i[0][0]*i[1][0]+i[0][1]*i[1][1];i[1][0]-=i[0][0]*a,i[1][1]-=i[0][1]*a;var l=nt(i[1][0]*i[1][0]+i[1][1]*i[1][1]);if(0===l)return{origin:{x:s(r[4]),y:s(r[5])},translate:{x:s(t),y:s(n)},scale:{x:s(o),y:0},skew:{x:0,y:0},rotate:0};i[1][0]/=l,i[1][1]/=l,a/=l;var f=0;return i[1][1]<0?(f=J(i[1][1])*tt,i[0][1]<0&&(f=360-f)):f=K(i[0][1])*tt,u&&(f=-f),a=X(a,nt(i[0][0]*i[0][0]+i[0][1]*i[0][1]))*tt,u&&(a=-a),{origin:{x:s(r[4]),y:s(r[5])},translate:{x:s(t),y:s(n)},scale:{x:s(o),y:s(l)},skew:{x:s(a),y:0},rotate:s(f)}}},{key:"toString",value:function(){return null===this.s&&(this.s="matrix("+this.m.map((function(t){return s(t)})).join(" ")+")"),this.s}}]),t}();Object.freeze({M:2,L:2,Z:0,H:1,V:1,C:6,Q:4,T:2,S:4,A:7});var et={},it=null;function ot(n){var r=function(){if(it)return it;if("object"!==("undefined"==typeof document?"undefined":t(document))||!document.createElementNS)return{};var n=document.createElementNS("http://www.w3.org/2000/svg","svg");return n&&n.style?(n.style.position="absolute",n.style.opacity="0.01",n.style.zIndex="-9999",n.style.left="-9999px",n.style.width="1px",n.style.height="1px",it={svg:n}):{}}().svg;if(!r)return function(t){return null};var e=document.createElementNS(r.namespaceURI,"path");e.setAttributeNS(null,"d",n),e.setAttributeNS(null,"fill","none"),e.setAttributeNS(null,"stroke","none"),r.appendChild(e);var i=e.getTotalLength();return function(t){var n=e.getPointAtLength(i*t);return{x:n.x,y:n.y}}}function ut(t){return et[t]?et[t]:et[t]=ot(t)}function at(t,n,r,e){if(!t||!e)return!1;var i=["M",t.x,t.y];if(n&&r&&(i.push("C"),i.push(n.x),i.push(n.y),i.push(r.x),i.push(r.y)),n?!r:r){var o=n||r;i.push("Q"),i.push(o.x),i.push(o.y)}return n||r||i.push("L"),i.push(e.x),i.push(e.y),i.join(" ")}function lt(t,n,r,e){var i=arguments.length>4&&void 0!==arguments[4]?arguments[4]:1,o=at(t,n,r,e),u=ut(o);try{return u(i)}catch(t){return null}}function ft(t,n,r,e){var i=1-e;return i*i*t+2*i*e*n+e*e*r}function st(t,n,r,e){return 2*(1-e)*(n-t)+2*e*(r-n)}function ct(t,n,r,e){var i=arguments.length>4&&void 0!==arguments[4]&&arguments[4],o=lt(t,n,null,r,e);return o||(o={x:ft(t.x,n.x,r.x,e),y:ft(t.y,n.y,r.y,e)}),i&&(o.a=ht(t,n,r,e)),o}function ht(t,n,r,e){return Math.atan2(st(t.y,n.y,r.y,e),st(t.x,n.x,r.x,e))}function vt(t,n,r,e,i){var o=i*i;return i*o*(e-t+3*(n-r))+3*o*(t+r-2*n)+3*i*(n-t)+t}function yt(t,n,r,e,i){var o=1-i;return 3*(o*o*(n-t)+2*o*i*(r-n)+i*i*(e-r))}function dt(t,n,r,e,i){var o=arguments.length>5&&void 0!==arguments[5]&&arguments[5],u=lt(t,n,r,e,i);return u||(u={x:vt(t.x,n.x,r.x,e.x,i),y:vt(t.y,n.y,r.y,e.y,i)}),o&&(u.a=gt(t,n,r,e,i)),u}function gt(t,n,r,e,i){return Math.atan2(yt(t.y,n.y,r.y,e.y,i),yt(t.x,n.x,r.x,e.x,i))}function pt(t,n,r){return t+(n-t)*r}function mt(t,n,r){var e=arguments.length>3&&void 0!==arguments[3]&&arguments[3],i={x:pt(t.x,n.x,r),y:pt(t.y,n.y,r)};return e&&(i.a=bt(t,n)),i}function bt(t,n){return Math.atan2(n.y-t.y,n.x-t.x)}function wt(t,n,r){var e=arguments.length>3&&void 0!==arguments[3]&&arguments[3];if(kt(n)){if(At(r))return ct(n,r.start,r,t,e)}else if(kt(r)){if(n.end)return ct(n,n.end,r,t,e)}else{if(n.end)return r.start?dt(n,n.end,r.start,r,t,e):ct(n,n.end,r,t,e);if(r.start)return ct(n,r.start,r,t,e)}return mt(n,r,t,e)}function xt(t,n,r){var e=wt(t,n,r,!0);return e.a=function(t){var n=arguments.length>1&&void 0!==arguments[1]&&arguments[1];return n?t+Math.PI:t}(e.a)/h,e}function kt(t){return!t.type||"corner"===t.type}function At(t){return null!=t.start&&!kt(t)}var St=new rt;var _t={f:Q,i:w},Ot={f:Q,i:function(t,n,r){var e=w(t,n,r);return e<=0?0:e>=1?1:e}};function Mt(t,n,r,e,i,o,u,a){return n=function(t,n,r){for(var e,i,o,u=t.length-1,a={},l=0;l<=u;l++)(e=t[l]).e&&(e.e=n(e.e)),e.v&&"g"===(i=e.v).t&&i.r&&(o=r.getElementById(i.r))&&(a[i.r]=o.querySelectorAll("stop"));return a}(t,e,a),function(e){var i,o=r(e,t,jt);return o?"c"===o.t?V(o.v):"g"===o.t?(n[o.r]&&function(t,n){for(var r=0,e=t.length;r<e;r++)t[r].setAttribute("stop-color",V(n[r]))}(n[o.r],o.v),(i=o.r)?"url(#"+i+")":"none"):"none":"none"}}function jt(t,n,r){if(0===t)return n;if(1===t)return r;if(n&&r){var e=n.t;if(e===r.t)switch(n.t){case"c":return{t:e,v:S(t,n.v,r.v)};case"g":if(n.r===r.r)return{t:e,v:_(t,n.v,r.v),r:n.r}}}return b(t,n,r)}var Pt={fill:Mt,"fill-opacity":Ot,stroke:Mt,"stroke-opacity":Ot,"stroke-width":_t,"stroke-dashoffset":{f:Q,i:w},"stroke-dasharray":{f:function(t){var n=arguments.length>1&&void 0!==arguments[1]?arguments[1]:" ";return t&&t.length>0&&(t=t.map((function(t){return s(t,4)}))),U(t,n)},i:function(t,n,r){var e,i,o,u=n.length,a=r.length;if(u!==a)if(0===u)n=O(u=a,0);else if(0===a)a=u,r=O(u,0);else{var l=(o=(e=u)*(i=a)/function(t,n){for(var r;n;)r=n,n=t%n,t=r;return t||1}(e,i))<0?-o:o;n=M(n,Math.floor(l/u)),r=M(r,Math.floor(l/a)),u=a=l}for(var f=[],c=0;c<u;c++)f.push(s(x(t,n[c],r[c])));return f}},opacity:Ot,transform:function(n,r,e,i){if(!(n=function(n,r){if(!n||"object"!==t(n))return null;var e=!1;for(var i in n)n.hasOwnProperty(i)&&(n[i]&&n[i].length?(n[i].forEach((function(t){t.e&&(t.e=r(t.e))})),e=!0):delete n[i]);return e?n:null}(n,i)))return null;var o=function(t,i,o){var u=arguments.length>3&&void 0!==arguments[3]?arguments[3]:null;return n[t]?e(i,n[t],o):r&&r[t]?r[t]:u};return r&&r.a&&n.o?function(t){var r=e(t,n.o,xt);return St.recomposeSelf(r,o("r",t,w,0)+r.a,o("k",t,k),o("s",t,k),o("t",t,k)).toString()}:function(t){return St.recomposeSelf(o("o",t,wt,null),o("r",t,w,0),o("k",t,k),o("s",t,k),o("t",t,k)).toString()}},r:_t,"#size":H,"#radius":G,_:function(t,n){if(Array.isArray(t))for(var r=0;r<t.length;r++)this[t[r]]=n;else this[t]=n}};return function(t){!function(t,n){if("function"!=typeof n&&null!==n)throw new TypeError("Super expression must either be null or a function");t.prototype=Object.create(n&&n.prototype,{constructor:{value:t,writable:!0,configurable:!0}}),n&&o(t,n)}(u,t);var r=a(u);function u(){return n(this,u),r.apply(this,arguments)}return e(u,null,[{key:"build",value:function(t){var n=l(i(u),"build",this).call(this,t,Pt);if(!n)return null;n.el,n.options;var r=n.player;return function(t,n,r){t.play()}(r),r}}]),u}(D)}));
__SVGATOR_PLAYER__.build({"root":"eFTMHnxiR3E1","animations":[{"duration":3000,"direction":1,"iterations":1,"fill":1,"alternate":false,"speed":1,"elements":{"eFTMHnxiR3E2":{"transform":{"data":{"o":{"x":2188.990112,"y":230.259941,"type":"corner"},"t":{"x":-2188.990112,"y":-230.259941}},"keys":{"s":[{"t":0,"v":{"x":1.5,"y":1.5}},{"t":500,"v":{"x":1,"y":1},"e":[0.42,0,1,1]}]}},"opacity":[{"t":0,"v":0},{"t":500,"v":1,"e":[0.42,0,1,1]}]},"eFTMHnxiR3E3":{"transform":{"data":{"o":{"x":1192.47543,"y":328.479889,"type":"corner"},"t":{"x":-1187.61499,"y":-329.329987}},"keys":{"s":[{"t":0,"v":{"x":1.5,"y":1.5}},{"t":500,"v":{"x":1,"y":1},"e":[0.42,0,1,1]}]}},"opacity":[{"t":0,"v":0},{"t":500,"v":1,"e":[0.42,0,1,1]}]},"eFTMHnxiR3E4":{"transform":{"data":{"o":{"x":666.929995,"y":265.174902,"type":"corner"},"t":{"x":-662.069555,"y":-266.025}},"keys":{"s":[{"t":0,"v":{"x":1.5,"y":1.5}},{"t":500,"v":{"x":1,"y":1},"e":[0.42,0,1,1]}]}},"opacity":[{"t":0,"v":0},{"t":500,"v":1,"e":[0.42,0,1,1]}]},"eFTMHnxiR3E5":{"transform":{"data":{"o":{"x":370.305447,"y":224.689895,"type":"corner"},"t":{"x":-365.445007,"y":-225.539993}},"keys":{"s":[{"t":0,"v":{"x":1.5,"y":1.5}},{"t":500,"v":{"x":1,"y":1},"e":[0.42,0,1,1]}]}},"opacity":[{"t":0,"v":0},{"t":500,"v":1,"e":[0.42,0,1,1]}]},"eFTMHnxiR3E6":{"transform":{"data":{"o":{"x":1418.100491,"y":224.6949,"type":"corner"},"t":{"x":-1413.240051,"y":-225.544998}},"keys":{"s":[{"t":0,"v":{"x":1.5,"y":1.5}},{"t":500,"v":{"x":1,"y":1},"e":[0.42,0,1,1]}]}},"opacity":[{"t":0,"v":0},{"t":500,"v":1,"e":[0.42,0,1,1]}]},"eFTMHnxiR3E7":{"transform":{"data":{"o":{"x":1971.310452,"y":224.6949,"type":"corner"},"t":{"x":-1966.450012,"y":-225.544998}},"keys":{"s":[{"t":0,"v":{"x":1.5,"y":1.5}},{"t":500,"v":{"x":1,"y":1},"e":[0.42,0,1,1]}]}},"opacity":[{"t":0,"v":0},{"t":500,"v":1,"e":[0.42,0,1,1]}]},"eFTMHnxiR3E8":{"transform":{"data":{"o":{"x":139.341452,"y":46.649952,"type":"corner"},"t":{"x":-138.504951,"y":-59.389952}},"keys":{"s":[{"t":0,"v":{"x":1.5,"y":1.5}},{"t":500,"v":{"x":1,"y":1},"e":[0.42,0,1,1]}]}},"opacity":[{"t":0,"v":0},{"t":500,"v":1,"e":[0.42,0,1,1]}]},"eFTMHnxiR3E9":{"transform":{"data":{"o":{"x":120.506537,"y":186.1601,"type":"corner"},"t":{"x":-119.670036,"y":-198.9001}},"keys":{"s":[{"t":0,"v":{"x":1.5,"y":1.5}},{"t":500,"v":{"x":1,"y":1},"e":[0.42,0,1,1]}]}},"opacity":[{"t":0,"v":0},{"t":500,"v":1,"e":[0.42,0,1,1]}]},"eFTMHnxiR3E10":{"transform":{"data":{"o":{"x":2191.080078,"y":329.324997,"type":"corner"},"t":{"x":-2191.080078,"y":-329.324997}},"keys":{"s":[{"t":0,"v":{"x":1.5,"y":1.5}},{"t":500,"v":{"x":1,"y":1},"e":[0.42,0,1,1]}]}},"opacity":[{"t":0,"v":0},{"t":500,"v":1,"e":[0.42,0,1,1]}]},"eFTMHnxiR3E11":{"transform":{"data":{"o":{"x":1256.39502,"y":664.494995,"type":"corner"},"t":{"x":-1256.39502,"y":-664.494995}},"keys":{"s":[{"t":0,"v":{"x":1.5,"y":1.5}},{"t":500,"v":{"x":1,"y":1},"e":[0.42,0,1,1]}]}},"opacity":[{"t":0,"v":0},{"t":500,"v":1,"e":[0.42,0,1,1]}]},"eFTMHnxiR3E12":{"transform":{"data":{"o":{"x":1474.10498,"y":642.230011,"type":"corner"},"t":{"x":-1474.10498,"y":-642.230011}},"keys":{"s":[{"t":0,"v":{"x":1.5,"y":1.5}},{"t":500,"v":{"x":1,"y":1},"e":[0.42,0,1,1]}]}},"opacity":[{"t":0,"v":0},{"t":500,"v":1,"e":[0.42,0,1,1]}]},"eFTMHnxiR3E13":{"transform":{"data":{"o":{"x":1467.664978,"y":626.230011,"type":"corner"},"t":{"x":-1467.664978,"y":-626.230011}},"keys":{"s":[{"t":0,"v":{"x":1.5,"y":1.5}},{"t":500,"v":{"x":1,"y":1},"e":[0.42,0,1,1]}]}},"opacity":[{"t":0,"v":0},{"t":500,"v":1,"e":[0.42,0,1,1]}]},"eFTMHnxiR3E14":{"transform":{"data":{"o":{"x":1212.60498,"y":604.200012,"type":"corner"},"t":{"x":-1212.60498,"y":-604.200012}},"keys":{"s":[{"t":0,"v":{"x":1.5,"y":1.5}},{"t":500,"v":{"x":1,"y":1},"e":[0.42,0,1,1]}]}},"opacity":[{"t":0,"v":0},{"t":500,"v":1,"e":[0.42,0,1,1]}]},"eFTMHnxiR3E15":{"transform":{"data":{"o":{"x":1258.934998,"y":761.785004,"type":"corner"},"t":{"x":-1258.934998,"y":-761.785004}},"keys":{"s":[{"t":0,"v":{"x":1.5,"y":1.5}},{"t":500,"v":{"x":1,"y":1},"e":[0.42,0,1,1]}]}},"opacity":[{"t":0,"v":0},{"t":500,"v":1,"e":[0.42,0,1,1]}]},"eFTMHnxiR3E16":{"transform":{"data":{"o":{"x":1015.125,"y":665.334991,"type":"corner"},"t":{"x":-1015.125,"y":-665.334991}},"keys":{"s":[{"t":0,"v":{"x":1.5,"y":1.5}},{"t":500,"v":{"x":1,"y":1},"e":[0.42,0,1,1]}]}},"opacity":[{"t":0,"v":0},{"t":500,"v":1,"e":[0.42,0,1,1]}]},"eFTMHnxiR3E17":{"transform":{"data":{"o":{"x":1054.154999,"y":590.350006,"type":"corner"},"t":{"x":-1054.154999,"y":-590.350006}},"keys":{"s":[{"t":0,"v":{"x":1.5,"y":1.5}},{"t":500,"v":{"x":1,"y":1},"e":[0.42,0,1,1]}]}},"opacity":[{"t":0,"v":0},{"t":500,"v":1,"e":[0.42,0,1,1]}]},"eFTMHnxiR3E18":{"transform":{"data":{"o":{"x":830.25,"y":642.5,"type":"corner"},"t":{"x":-830.25,"y":-642.5}},"keys":{"s":[{"t":0,"v":{"x":1.5,"y":1.5}},{"t":500,"v":{"x":1,"y":1},"e":[0.42,0,1,1]}]}},"opacity":[{"t":0,"v":0},{"t":500,"v":1,"e":[0.42,0,1,1]}]},"eFTMHnxiR3E19":{"transform":{"data":{"o":{"x":849.769012,"y":439.876007,"type":"corner"},"t":{"x":-849.769012,"y":-439.876007}},"keys":{"s":[{"t":0,"v":{"x":1.5,"y":1.5}},{"t":500,"v":{"x":1,"y":1},"e":[0.42,0,1,1]}]}},"opacity":[{"t":0,"v":0},{"t":500,"v":1,"e":[0.42,0,1,1]}]},"eFTMHnxiR3E20":{"transform":{"data":{"o":{"x":804,"y":630,"type":"corner"},"t":{"x":-804,"y":-630}},"keys":{"s":[{"t":0,"v":{"x":1.5,"y":1.5}},{"t":500,"v":{"x":1,"y":1},"e":[0.42,0,1,1]}]}},"opacity":[{"t":0,"v":0},{"t":500,"v":1,"e":[0.42,0,1,1]}]},"eFTMHnxiR3E21":{"transform":{"data":{"o":{"x":41.141518,"y":186.1601,"type":"corner"},"t":{"x":-40.814783,"y":-198.9001}},"keys":{"s":[{"t":0,"v":{"x":1.5,"y":1.5}},{"t":500,"v":{"x":1,"y":1},"e":[0.42,0,1,1]}]}},"opacity":[{"t":0,"v":0},{"t":500,"v":1,"e":[0.42,0,1,1]}]},"eFTMHnxiR3E22":{"transform":{"data":{"o":{"x":888.045438,"y":186.854799,"type":"corner"},"t":{"x":-883.184998,"y":-187.704897}},"keys":{"s":[{"t":0,"v":{"x":1.5,"y":1.5}},{"t":500,"v":{"x":1,"y":1},"e":[0.42,0,1,1]}]}},"opacity":[{"t":0,"v":0},{"t":500,"v":1,"e":[0.42,0,1,1]}]},"eFTMHnxiR3E23":{"transform":{"data":{"o":{"x":986.040402,"y":224.909996,"type":"corner"},"t":{"x":-981.179962,"y":-225.760094}},"keys":{"s":[{"t":0,"v":{"x":1.5,"y":1.5}},{"t":500,"v":{"x":1,"y":1},"e":[0.42,0,1,1]}]}},"opacity":[{"t":0,"v":0},{"t":500,"v":1,"e":[0.42,0,1,1]}]},"eFTMHnxiR3E24":{"transform":{"data":{"o":{"x":734.695431,"y":126.989902,"type":"corner"},"t":{"x":-729.834991,"y":-127.84}},"keys":{"s":[{"t":0,"v":{"x":1.5,"y":1.5}},{"t":500,"v":{"x":1,"y":1},"e":[0.42,0,1,1]}]}},"opacity":[{"t":0,"v":0},{"t":500,"v":1,"e":[0.42,0,1,1]}]},"eFTMHnxiR3E25":{"transform":{"data":{"o":{"x":462.570447,"y":225.1949,"type":"corner"},"t":{"x":-457.710007,"y":-226.044998}},"keys":{"s":[{"t":0,"v":{"x":1.5,"y":1.5}},{"t":500,"v":{"x":1,"y":1},"e":[0.42,0,1,1]}]}},"opacity":[{"t":0,"v":0},{"t":500,"v":1,"e":[0.42,0,1,1]}]},"eFTMHnxiR3E26":{"transform":{"data":{"o":{"x":1174.685452,"y":186.429851,"type":"corner"},"t":{"x":-1169.825012,"y":-187.279949}},"keys":{"s":[{"t":0,"v":{"x":1.5,"y":1.5}},{"t":500,"v":{"x":1,"y":1},"e":[0.42,0,1,1]}]}},"opacity":[{"t":0,"v":0},{"t":500,"v":1,"e":[0.42,0,1,1]}]},"eFTMHnxiR3E27":{"transform":{"data":{"o":{"x":1455.765469,"y":198.169899,"type":"corner"},"t":{"x":-1450.905029,"y":-199.019997}},"keys":{"s":[{"t":0,"v":{"x":1.5,"y":1.5}},{"t":500,"v":{"x":1,"y":1},"e":[0.42,0,1,1]}]}},"opacity":[{"t":0,"v":0},{"t":500,"v":1,"e":[0.42,0,1,1]}]},"eFTMHnxiR3E28":{"transform":{"data":{"o":{"x":1706.525418,"y":184.624954,"type":"corner"},"t":{"x":-1701.664978,"y":-185.475052}},"keys":{"s":[{"t":0,"v":{"x":1.5,"y":1.5}},{"t":500,"v":{"x":1,"y":1},"e":[0.42,0,1,1]}]}},"opacity":[{"t":0,"v":0},{"t":500,"v":1,"e":[0.42,0,1,1]}]},"eFTMHnxiR3E29":{"transform":{"data":{"o":{"x":1740.845425,"y":198.049995,"type":"corner"},"t":{"x":-1735.984985,"y":-198.900093}},"keys":{"s":[{"t":0,"v":{"x":1.5,"y":1.5}},{"t":500,"v":{"x":1,"y":1},"e":[0.42,0,1,1]}]}},"opacity":[{"t":0,"v":0},{"t":500,"v":1,"e":[0.42,0,1,1]}]},"eFTMHnxiR3E30":{"transform":{"data":{"o":{"x":2009.660428,"y":148.729896,"type":"corner"},"t":{"x":-2004.799988,"y":-149.579994}},"keys":{"s":[{"t":0,"v":{"x":1.5,"y":1.5}},{"t":500,"v":{"x":1,"y":1},"e":[0.42,0,1,1]}]}},"opacity":[{"t":0,"v":0},{"t":500,"v":1,"e":[0.42,0,1,1]}]},"eFTMHnxiR3E31":{"transform":{"data":{"o":{"x":2246.045044,"y":129.170048,"type":"corner"},"t":{"x":-2246.045044,"y":-129.170048}},"keys":{"s":[{"t":0,"v":{"x":1.5,"y":1.5}},{"t":500,"v":{"x":1,"y":1},"e":[0.42,0,1,1]}]}},"opacity":[{"t":0,"v":0},{"t":500,"v":1,"e":[0.42,0,1,1]}]},"eFTMHnxiR3E32":{"transform":{"data":{"o":{"x":382.690002,"y":613.494995,"type":"corner"},"t":{"x":-382.690002,"y":-613.494995}},"keys":{"s":[{"t":500,"v":{"x":1.5,"y":1.5}},{"t":700,"v":{"x":1,"y":1}}]}},"opacity":[{"t":500,"v":0},{"t":700,"v":1}]},"eFTMHnxiR3E33":{"transform":{"data":{"o":{"x":552.194992,"y":618.610016,"type":"corner"},"t":{"x":-552.194992,"y":-618.610016}},"keys":{"s":[{"t":700,"v":{"x":1.5,"y":1.5}},{"t":900,"v":{"x":1,"y":1}}]}},"opacity":[{"t":700,"v":0},{"t":930,"v":1}]},"eFTMHnxiR3E34":{"transform":{"data":{"o":{"x":1714.22998,"y":613.494995,"type":"corner"},"t":{"x":-1714.22998,"y":-613.494995}},"keys":{"s":[{"t":900,"v":{"x":1.5,"y":1.5}},{"t":1100,"v":{"x":1,"y":1}}]}},"opacity":[{"t":900,"v":0},{"t":1100,"v":1}]},"eFTMHnxiR3E35":{"transform":{"data":{"o":{"x":1846.150024,"y":618.76001,"type":"corner"},"t":{"x":-1846.150024,"y":-618.76001}},"keys":{"s":[{"t":1100,"v":{"x":1.5,"y":1.5}},{"t":1300,"v":{"x":1,"y":1}}]}},"opacity":[{"t":1100,"v":0},{"t":1300,"v":1}]}}}],"options":{"start":"load","hover":null,"click":null,"scroll":null,"font":"embed","exportedIds":"unique","svgFormat":"animated","title":"logo-hacktoberfest-full.7d5e2645"},"animationSettings":{"duration":3000,"direction":1,"iterations":1,"fill":1,"alternate":false,"speed":1}})]]></script></svg>