<svg width="653" height="253" viewBox="0 0 653 253" fill="none" xmlns="http://www.w3.org/2000/svg">
<path d="M625.116 32.6737L624.951 25.8692L604.45 25.7382C605.731 48.8071 605.731 57.137 605.731 96.0944C613.413 99.427 621.875 102.888 625.207 105.321L641.223 87.5084C636.739 87.1242 629.179 84.5629 624.951 82.1268C624.951 59.186 624.951 52.0115 625.207 44.1939L625.116 32.6737Z" fill="#F74700"/>
<path d="M339.708 82.1268L320.488 96.0945C328.17 99.427 335.995 102.888 339.324 105.321L355.34 87.5084C350.856 87.1242 343.936 84.5629 339.708 82.1268Z" fill="#B53A25"/>
<path d="M192.221 40.6052L204.965 23.1799L204.78 23.049L170.824 38.172C172.107 53.2922 172.107 66.2353 172.107 92.1244C180.692 94.6857 194.529 100.067 205.682 105.321L220.674 87.5084C211.834 86.2277 197.869 83.1513 191.333 79.3065C191.333 62.9028 191.333 53.8045 192.23 40.6024L192.221 40.6052Z" fill="#F74700"/>
<path d="M125.293 87.6763L122.898 86.8681C115.85 85.0752 108.933 82.7672 103.168 79.3066C103.168 62.9028 103.453 53.7732 104.346 40.5739H104.395L117.016 23.3363L116.621 23.0518L82.6678 38.172C83.9482 53.2922 83.9482 66.2354 83.9482 92.1245C91.1241 93.9174 101.245 100.067 110.597 105.321C110.597 105.321 122.129 91.6094 124.949 88.2768L125.293 87.6763Z" fill="#F74700"/>
<path d="M434.141 90.2149L412.742 87.2665C404.928 85.3455 396.856 83.0375 390.579 79.3208C390.579 63.0451 390.579 53.9468 391.476 41.0037L391.564 41.0179L406.596 23.0518L370.082 38.1748C371.362 53.2951 371.362 66.2382 371.362 92.1273C378.535 93.9202 392.247 101.482 397.627 105.324L434.141 90.2149Z" fill="#F74700"/>
<path d="M585.427 62.1259H569.709H554.08C554.208 54.8205 554.464 48.4144 554.976 40.5967L555.07 40.6252L567.549 23.0518L533.593 38.1748C534.877 53.2951 534.877 66.2382 534.877 92.1273C543.458 94.6886 557.298 100.07 568.451 105.324L583.443 87.5113C574.603 86.2306 560.638 83.1542 554.103 79.3094V67.7721L570.375 74.1811C575.835 69.4825 578.655 66.9212 585.441 62.1344" fill="#F74700"/>
<path d="M22.569 25.8691L54.2146 29.7111L58.5737 7.92577L20.2444 4.09235L22.5605 25.9858L22.569 25.8691Z" fill="#B53A25"/>
<path d="M62.8019 113.782C61.5186 90.7129 61.5186 74.1811 61.5186 48.2948C54.3427 46.5019 39.3536 38.9404 33.9731 35.0927C33.9731 35.0927 26.6123 43.2832 21.8691 48.568V54.072C28.6353 56.1153 35.5267 58.5457 41.021 62.2511C41.021 82.7558 41.021 93.2713 39.7377 116.323L62.8019 113.782Z" fill="#B53A25"/>
<path d="M605.651 96.2254C613.299 99.538 621.869 102.905 625.196 105.332L641.212 87.5198C636.975 87.1555 629.466 84.4149 625.142 82.1126L605.651 96.2254Z" fill="#B53A25"/>
<path d="M364.69 210.596L360.393 190.871L338.143 194.665C333.844 183.537 331.946 177.214 329.166 166.086C335.486 162.168 349.14 153.442 354.956 148.638C365.199 151.165 375.565 154.202 383.907 154.202L378.598 174.812C370.506 173.042 358.874 168.616 351.283 165.329L358.487 186.571L377.835 180.629C381.25 190.874 383.526 200.354 385.802 212.503C377.713 217.941 370.252 225.526 365.703 229.578C352.301 227.051 344.969 225.659 330.936 225.659C332.959 216.681 336.626 209.475 340.041 204.031L364.69 210.596Z" fill="#B53A25"/>
<path d="M424.991 151.16H436.116L434.346 163.682H424.612C424.359 174.305 424.359 186.062 424.359 206.675C428.533 209.076 435.359 211.606 439.783 211.985L423.98 229.561C420.694 227.159 412.981 223.744 405.395 220.454C405.395 196.936 405.395 179.106 405.145 163.679H399.075C401.352 158.115 402.49 156.723 404.766 151.157C404.641 145.974 404.388 140.912 404.134 135.983L425.625 138.513C425.375 143.194 425.119 147.241 424.991 151.16Z" fill="#B53A25"/>
<path d="M405.395 220.454C405.395 196.936 405.395 179.106 405.145 163.679H399.075C401.352 158.115 402.49 156.723 404.766 151.157C404.641 145.974 404.388 140.912 404.134 135.983L425.625 138.513C425.375 143.191 425.121 147.238 424.993 151.157H436.119L434.349 163.679H424.615C424.362 174.302 424.362 186.059 424.362 206.672" fill="#F74700"/>
<path d="M341.017 194.17L360.888 185.831L358.496 186.565L351.291 165.324L354.199 149.239C348.036 154.139 335.232 162.33 329.16 166.081C331.94 177.208 333.838 183.532 338.137 194.659L341.017 194.17Z" fill="#F74700"/>
<path d="M364.69 210.596L340.038 204.022C336.624 209.461 332.959 216.666 330.933 225.651C344.966 225.651 352.298 227.043 365.7 229.57C370.19 225.585 377.514 218.141 385.481 212.722L364.69 210.596Z" fill="#F74700"/>
<path d="M314.976 157.307L314.718 187.166C307.801 192.038 304.981 194.602 299.472 199.344L283.2 192.935V204.469C289.744 208.314 303.686 211.39 312.541 212.671L297.549 230.483C286.404 225.23 272.564 219.848 263.974 217.284C263.974 191.386 263.974 178.452 262.694 163.332L296.65 148.211C302.036 152.053 307.03 153.593 314.976 157.307ZM298.829 187.294V171.661C294.217 169.356 289.989 167.677 284.096 165.768C283.584 173.582 283.328 179.997 283.2 187.294H298.829Z" fill="#F74700"/>
<path d="M284.924 165.768L284.904 166.035C290.373 167.845 294.436 169.464 298.829 171.661V187.294H314.538L314.718 187.166L314.976 157.307C307.394 153.764 302.5 152.184 297.392 148.721L284.924 165.768Z" fill="#B53A25"/>
<path d="M236.629 231.753L236.812 231.646C236.558 202.208 236.812 191.925 237.569 160.467H244.406L249.85 146.034H237.951L239.433 133.757C247.156 131.305 253.246 127.222 259.066 126.358C258.815 126.211 243.429 116.881 240.145 112.697C236.851 115.439 225.548 119.048 217.954 122.806C218.332 130.165 218.714 137.957 218.968 146.037H218.842L213.399 160.47H219.475C219.546 162.991 219.615 165.407 219.68 167.749H217.133C217.39 185.592 217.39 220.847 217.39 248.047C225.081 251.85 224.198 250.22 227.531 253L245.762 236.112C241.273 235.67 240.863 234.887 236.629 232.11V231.753Z" fill="#B53A25"/>
<path d="M239.291 135.891L246.262 132.049L258.658 140.107L267.328 126.861C267.324 126.784 267.293 126.5 267.284 126.437L242.356 110.261C235.27 114.718 221.93 120.814 216.244 123.227L239.291 135.891Z" fill="#B53A25"/>
<path d="M237.984 146.066L239.291 135.749L242.136 110.421C239.803 112.371 229.699 116.876 224.538 119.516V119.419L216.111 123.187C216.365 128.895 216.624 134.753 216.753 140.741C216.67 140.832 216.667 142.994 216.701 146.054H207.01L202.017 160.501H216.955C217.046 164.642 217.126 167.786 217.126 167.786C217.383 185.647 217.383 220.935 217.383 248.162L236.652 232.21V231.855L236.834 231.748C236.58 202.282 236.834 191.989 237.593 160.501H249.892L255.509 146.066H237.984Z" fill="#F74700"/>
<path d="M22.5605 25.9858L20.2444 4.09235H20.1334C14.2408 8.96452 7.06487 14.5994 0.660056 18.5723C1.94045 41.6411 1.42829 78.5495 0.14505 102.771H23.0812C22.4723 91.2023 22.0284 77.8693 21.869 64.5477V41.2455L22.5605 25.9858Z" fill="#F74700"/>
<path d="M261.092 39.3558C261.61 24.5571 261.661 13.3073 262.184 4.08093L240.404 6.64224C241.684 29.694 241.431 63.7964 241.431 102.757H260.915V68.1591L261.092 39.3558Z" fill="#F74700"/>
<path d="M297.418 65.595C293.065 63.6712 288.194 61.366 284.224 59.317L294.726 55.3327V32.4033C284.993 29.1989 281.661 27.2808 274.613 23.049C274.613 23.049 265.684 32.89 261.191 37.95L261.16 41.3651C267.312 42.5034 270.001 43.0328 275.512 44.5667V51.3684C275.512 52.6462 266.72 59.6585 260.952 64.7811L260.927 67.8205L261.211 68.0453C268.609 70.7318 274.243 73.0313 278.206 74.8214C278.206 81.2304 278.078 97.7593 278.078 103.144L297.427 105.449C296.766 95.585 296.766 76.8733 297.418 65.595Z" fill="#B53A25"/>
<path d="M192.221 40.6052C200.293 43.2946 205.42 45.3465 212.337 49.5755L223.101 32.1586C215.248 28.4846 210.277 26.9364 204.965 23.1884L192.221 40.6052Z" fill="#B53A25"/>
<path d="M143.017 82.1268C142.806 59.2117 142.886 53.8045 142.886 36.2482C135.872 34.4922 122.633 27.2381 117.019 23.3363L104.38 40.6194L104.398 40.6821C112.273 42.105 117.224 44.248 123.669 47.0284C123.669 58.6966 123.353 69.067 122.898 86.8709L125.293 87.6792L124.992 88.3479C129.985 96.5185 136.874 103.024 140.072 105.324L156.085 87.5112C151.729 86.8681 147.242 84.5629 143.017 82.1268Z" fill="#B53A25"/>
<path d="M320.488 96.0945C320.488 72.2601 320.488 54.1887 320.235 38.5533H314.083C316.388 32.9156 317.543 31.5069 319.848 25.8691C319.72 20.6128 319.464 15.4873 319.207 10.5013L340.988 13.0626C340.735 17.8039 340.476 21.9048 340.348 25.8691H351.621L349.829 38.5533H339.964C339.708 49.3193 339.708 61.2379 339.708 82.1268L320.488 96.0945Z" fill="#F74700"/>
<path d="M391.515 41.0776L392.77 41.2285C400.182 42.6172 407.72 44.4671 413.655 47.0142C413.655 59.058 413.655 68.5405 412.756 87.2523L434.141 90.2148C432.861 67.146 432.861 53.8187 432.861 36.2624C425.685 34.4666 411.973 26.9051 406.593 23.0631L391.515 41.0776Z" fill="#B53A25"/>
<path d="M473.461 38.4196C474.206 21.9447 473.944 8.60034 474.243 0.241943L453.999 6.6509C454.383 29.7026 454.127 74.571 454.127 92.1301C461.303 93.9231 475.014 101.485 480.395 105.327L514.356 90.2149V90.175L492.888 87.8158V87.7674C484.856 86.3444 479.871 84.1816 473.355 81.3698C473.355 75.1089 473.355 58.56 473.483 41.3879L473.461 38.4196Z" fill="#F74700"/>
<path d="M514.353 90.1608C513.076 75.0576 513.076 62.1116 513.076 36.2482C505.897 34.4524 495.776 28.3025 486.424 23.049C486.424 23.049 477.66 33.425 473.532 38.3683V41.385C480.819 43.1779 487.855 45.6083 493.864 49.0689C493.864 65.3218 493.563 74.7218 492.894 87.8072L514.353 90.1608Z" fill="#B53A25"/>
<path d="M555.007 40.7247L555.827 40.9837C561.298 42.7937 565.196 44.1825 569.59 46.3909V62.0263L585.418 62.1458C585.481 62.1002 585.703 61.921 585.751 61.8783L585.851 32.1586C578.268 28.6126 572.705 26.4668 567.598 22.992L555.007 40.7247Z" fill="#B53A25"/>
<path d="M632.756 23.3051L625.324 32.5314L625.142 32.7335V44.0914L626.055 44.561C630.016 46.2301 633.882 48.1178 637.635 50.2158L653 32.6595C646.976 29.7111 639.032 26.3786 632.756 23.3051Z" fill="#B53A25"/>
<path d="M90.9249 195.188L110.114 169.678L113.303 156.126C107.869 158.01 102.65 161.126 97.9386 163.952L91.346 152.853C98.0098 150.969 102.576 149.153 109.098 146.692L126.85 156.985L119.677 176.986L105.186 192.496C111.994 192.496 118.951 192.567 125.256 191.625L121.632 202.497H95.0535L90.9249 195.188Z" fill="#677662"/>
<path d="M174.469 155.619C174.469 165.549 174.543 182.371 175.269 195.408L154.617 203.945C151.573 201.771 143.819 197.494 139.762 196.481C139.762 181.838 139.691 165.244 138.965 156.692L159.617 148.154C162.658 150.329 170.412 154.603 174.469 155.619ZM163.167 193.74C163.674 183.159 163.6 168.52 163.6 161.707C160.052 160.184 155.485 159.097 151.066 158.291C150.56 165.827 150.631 180.034 150.631 189.238C154.182 191.349 158.746 192.667 163.167 193.74Z" fill="#677662"/>
<path d="M469.784 195.188L488.987 169.678L492.174 156.126C486.74 158.01 481.524 161.126 476.81 163.952L470.217 152.853C476.883 150.969 481.447 149.153 487.969 146.692L505.721 156.985L498.548 176.986L484.057 192.496C490.868 192.496 497.825 192.567 504.127 191.625L500.505 202.497H473.916L469.784 195.188Z" fill="#677662"/>
<path d="M521.595 204.031C521.595 198.379 521.085 172.359 521.085 162.577L527.536 158.371H517.825L519.711 148.154H532.751L531.955 158.3C532.029 174.172 532.174 195.624 532.751 202.582L521.595 204.031Z" fill="#677662"/>
</svg>
