<svg width="2436" height="3095" viewBox="0 0 2436 3095" fill="none" xmlns="http://www.w3.org/2000/svg">
<path d="M643.803 890.319L643.803 791.138L643.81 784.973H758.562V890.317H655.373L643.803 890.319Z" fill="#E5E1E6"/>
<path d="M758.562 714.073V784.973H873.315V1206.35H758.562V1248.56L758.556 1311.69H862.156L873.315 1311.69V1318.07L873.308 1379.71L873.315 1522.38H988.067V1206.35H1102.82V1101.01L1332.32 1101V1417.04H1447.08V1311.69H1537.05L1561.82 1311.69L1561.83 1206.35H1607.81L1673.05 1206.35L1676.58 1206.35V1101H1561.83V1206.35L1447.08 1206.35V468.941H1332.32V574.285H1217.57V679.629H1102.82V711.428L1102.81 775.338L1102.82 784.973H1118.5L1217.56 784.975L1217.57 679.629H1331.13L1332.32 679.631V783.079L1332.32 784.973V841.465L1332.32 901.167L1332.32 995.661H1102.82V1101.01L988.067 1101V574.285H873.315L873.308 611.469L873.315 679.629H758.562V714.073Z" fill="#E5E1E6"/>
<path fill-rule="evenodd" clip-rule="evenodd" d="M2050.68 1454.17C1772.09 1917.79 1155.1 2076.64 672.584 1808.97C190.067 1541.3 24.7454 948.457 303.326 484.831C581.907 21.2036 1198.9 -137.646 1681.42 130.028C2163.93 397.704 2329.25 990.543 2050.68 1454.17ZM489.666 1594.08C437.942 1466.29 429.287 1303.08 464.278 1127.41C412.75 1080.98 367.247 1034.53 328.632 989.028C292.145 946.033 261.441 903.453 237.6 862.136C204.854 1127.74 296.082 1397.56 489.666 1594.08ZM257.25 756.748C277.096 814.287 317.734 880.315 377.498 950.742C407.365 985.938 441.736 1021.91 480.186 1058.14C493.702 1006.12 510.929 953.287 531.885 900.224C535.065 904.621 538.663 908.768 542.655 912.602C554.538 924.02 569.258 932.079 585.223 936.165C563.287 993.59 545.983 1050.48 533.235 1106.03C567.28 1135.53 603.887 1165.04 642.825 1194.27C641.665 1199.96 641.058 1205.83 641.058 1211.84V1269.25C598.078 1238.3 557.49 1206.87 519.569 1175.28C509.417 1236.95 505.103 1296.45 506.514 1352.58C511.075 1534.11 574.386 1671.12 681.74 1742.86L769.738 1596.41C773.761 1612.63 782.39 1627.62 794.862 1639.61C799.401 1643.96 804.354 1647.84 809.632 1651.18L736.853 1772.31C853.968 1820.89 1005.37 1803.69 1166.97 1718.97C1218.28 1692.07 1269.74 1658.74 1320.24 1619.45C1243.49 1593.95 1163.62 1562.42 1082.42 1525.17V1457.84C1183.7 1505.75 1282.71 1544.46 1375.83 1573.46C1386.32 1564.24 1396.75 1554.78 1407.1 1545.05H1492.26C1493.29 1545.05 1494.31 1545.04 1495.33 1545C1478.95 1561.82 1462.33 1578.04 1445.52 1593.66C1497.39 1607.53 1547.01 1618.16 1593.66 1625.41C1687.01 1639.93 1766.84 1640.72 1828.62 1628.47C1892.85 1569.79 1949.51 1501.37 1996.06 1423.88C2062.39 1313.51 2101.87 1195.32 2116.47 1076.31C2067.39 1077.11 2013.75 1072.85 1956.86 1064C1845.44 1046.67 1719.35 1011.4 1586.83 959.666V894.113C1654.58 921.432 1720.5 944.31 1783.44 962.584C1829.35 829.908 1850.37 701.151 1847.49 586.423C1843.05 409.588 1782.85 275 1680.5 201.84L1586.65 358.026C1585.23 335.985 1575.48 315.12 1559.14 299.413C1557.02 297.382 1554.82 295.457 1552.54 293.642L1626.4 170.705C1508.07 117.243 1352.93 133.065 1187.03 220.033C1105.91 262.558 1024.39 321.19 946.891 393.962H861.74C860.712 393.962 859.686 393.979 858.661 394.011C1026.67 221.506 1219.62 111.385 1396.28 85.2618C1143.41 27.264 877.85 73.0872 663.074 206.389C684.924 245.175 714.282 286.532 750.769 329.529C771.469 353.923 794.336 378.694 819.224 403.663C810.299 407.978 802.061 413.664 794.864 420.579C786.712 428.411 780.204 437.526 775.548 447.429C748.812 420.7 724.208 394.099 701.902 367.814C665.482 324.896 634.824 282.392 611.002 241.149C511.027 312.804 424.25 404.751 357.931 515.123C311.365 592.619 278.03 673.965 257.25 756.748ZM1743.46 1697.52C1520.45 1857.56 1231.65 1916.56 957.733 1853.74C1098.78 1832.88 1250.21 1758.48 1391.04 1641.53C1458.65 1661.19 1523.27 1675.83 1583.59 1685.22C1640.58 1694.08 1694.31 1698.34 1743.46 1697.52ZM2121.77 1015.59C2075.88 1016.81 2023.93 1013.06 1966.93 1004.19C1927.95 998.135 1886.89 989.721 1844.18 979.022C1925.92 741.264 1932.21 512.608 1864.34 344.922C2043.05 526.341 2134.52 770.229 2121.77 1015.59Z" fill="url(#paint0_linear_1105_24)"/>
<path d="M255 2016H351.273V2135.79H621.727V2016H718V2341H621.727V2213.79H351.273V2341H255V2016Z" fill="#E5E1E6"/>
<path d="M847.2 2074.04C853.131 2057.32 862.955 2043.55 876.672 2032.71C890.759 2021.57 910.035 2016 934.503 2016H1050.72C1075.56 2016 1095.4 2021.57 1110.22 2032.71C1125.05 2043.55 1135.43 2057.32 1141.36 2074.04L1237 2341H1130.24L1104.11 2263H927.83L950.071 2185H1077.97L1047.94 2094H940.064L857.766 2341H751L847.2 2074.04Z" fill="#E5E1E6"/>
<path d="M1264 2074.04C1264 2065.68 1265.86 2057.94 1269.57 2050.82C1273.28 2043.7 1278.12 2037.67 1284.06 2032.71C1290.37 2027.45 1297.62 2023.43 1305.79 2020.64C1314.33 2017.55 1323.06 2016 1331.97 2016H1698V2094H1360.38V2263H1698V2341H1335.87C1325.84 2341 1316.37 2339.45 1307.46 2336.36C1298.54 2333.26 1290.93 2329.24 1284.61 2324.29C1278.3 2319.02 1273.28 2312.99 1269.57 2306.18C1265.86 2299.06 1264 2291.79 1264 2284.36V2074.04Z" fill="#E5E1E6"/>
<path d="M1748 2016H1844.14V2143.21H1930.83L2048.64 2016H2159.77L2014.74 2173.86L2187 2341H2064.19L1935.83 2221.21H1844.14V2341H1748V2016Z" fill="#E5E1E6"/>
<path d="M186.933 2469H0V2391H469V2469H283.181V2716H186.933V2469Z" fill="#E5E1E6"/>
<path fill-rule="evenodd" clip-rule="evenodd" d="M505 2449.04C505 2440.68 506.853 2432.94 510.557 2425.82C514.261 2418.7 519.076 2412.67 525.005 2407.71C531.302 2402.45 538.526 2398.43 546.676 2395.64C555.196 2392.55 563.902 2391 572.793 2391H902.314C912.317 2391 921.763 2392.55 930.654 2395.64C939.545 2398.74 947.138 2402.92 953.439 2408.18C959.731 2413.13 964.732 2419.17 968.443 2426.29C972.145 2433.1 974 2440.21 974 2447.64V2657.96C974 2666.32 972.145 2674.06 968.443 2681.18C964.732 2688.3 959.731 2694.49 953.439 2699.75C947.506 2704.7 940.285 2708.73 931.765 2711.82C923.615 2714.61 915.095 2716 906.204 2716H576.683C566.68 2716 557.235 2714.45 548.343 2711.36C539.452 2708.26 531.858 2704.24 525.56 2699.29C519.262 2694.02 514.261 2687.99 510.557 2681.18C506.853 2674.06 505 2666.79 505 2659.36V2449.04ZM877.865 2638V2469H601.133V2638H877.865Z" fill="#E5E1E6"/>
<path fill-rule="evenodd" clip-rule="evenodd" d="M1024 2449.04C1024 2440.68 1025.86 2432.94 1029.56 2425.82C1033.28 2418.7 1038.1 2412.67 1044.03 2407.71C1050.34 2402.45 1057.58 2398.43 1065.74 2395.64C1074.27 2392.55 1082.99 2391 1091.89 2391H1358.45C1368.47 2391 1377.74 2392.55 1386.28 2395.64C1394.8 2398.74 1402.04 2402.92 1407.98 2408.18C1414.28 2413.13 1419.11 2419.17 1422.45 2426.29C1426.15 2433.1 1428.01 2440.21 1428.01 2447.64V2515.43C1438.02 2515.43 1446.92 2516.98 1454.72 2520.07C1462.88 2523.17 1469.74 2527.34 1475.31 2532.61C1480.87 2537.56 1484.95 2543.6 1487.55 2550.71C1490.52 2557.52 1492 2564.64 1492 2572.07V2657.96C1492 2666.32 1490.15 2674.06 1486.44 2681.18C1482.73 2688.3 1477.72 2694.49 1471.41 2699.75C1465.48 2704.7 1458.24 2708.73 1449.71 2711.82C1441.55 2714.61 1433.02 2716 1424.12 2716H1024V2449.04ZM1395.74 2638V2588.32H1120.27V2638H1395.74ZM1331.74 2515.43V2469H1120.27V2515.43H1331.74Z" fill="#E5E1E6"/>
<path d="M1536 2449.04C1536 2440.68 1537.86 2432.94 1541.56 2425.82C1545.27 2418.7 1550.08 2412.67 1556.01 2407.71C1562.31 2402.45 1569.54 2398.43 1577.69 2395.64C1586.22 2392.55 1594.92 2391 1603.82 2391H1954V2469H1632.16V2510.79H1910.1V2588.79H1632.16V2638H1954V2716H1607.71C1597.7 2716 1588.25 2714.45 1579.36 2711.36C1570.46 2708.26 1562.87 2704.24 1556.57 2699.29C1550.27 2694.02 1545.27 2687.99 1541.56 2681.18C1537.86 2674.06 1536 2666.79 1536 2659.36V2449.04Z" fill="#E5E1E6"/>
<path d="M340 2828.04C340 2819.68 341.854 2811.94 345.563 2804.82C349.271 2797.7 354.091 2791.67 360.023 2786.71C366.327 2781.45 373.557 2777.43 381.714 2774.64C390.243 2771.55 398.956 2770 407.855 2770H731V2848H436.221V2922.75H686.505V3000.75H436.221V3095H340V2828.04Z" fill="#E5E1E6"/>
<path d="M767 2828.04C767 2819.68 768.852 2811.94 772.558 2804.82C776.263 2797.7 781.081 2791.67 787.01 2786.71C793.309 2781.45 800.537 2777.43 808.688 2774.64C817.212 2771.55 825.92 2770 834.814 2770H1185V2848H863.162V2889.78H1141.09V2967.78H863.162V3017H1185V3095H838.705C828.699 3095 819.251 3093.45 810.357 3090.36C801.463 3087.26 793.865 3083.24 787.566 3078.28C781.266 3073.03 776.263 3066.99 772.558 3060.18C768.852 3053.06 767 3045.78 767 3038.36V2828.04Z" fill="#E5E1E6"/>
<path d="M1235 3017H1606.84V2967.78H1304.48C1294.47 2967.78 1285.21 2966.24 1276.69 2963.14C1268.16 2960.05 1260.76 2956.03 1254.45 2951.08C1248.53 2945.81 1243.7 2939.77 1240 2932.97C1236.67 2925.85 1235 2918.58 1235 2911.14V2828.04C1235 2819.68 1236.86 2811.94 1240.56 2804.82C1244.26 2797.7 1249.08 2791.67 1255.01 2786.71C1261.31 2781.45 1268.54 2777.43 1276.69 2774.64C1285.21 2771.55 1293.92 2770 1302.81 2770H1659.65V2848H1331.16V2889.78H1633.52C1643.53 2889.78 1652.79 2891.33 1661.31 2894.43C1669.84 2897.53 1677.06 2901.7 1682.99 2906.97C1689.29 2911.92 1694.11 2917.95 1697.44 2925.08C1701.14 2931.88 1703 2939 1703 2946.43V3036.97C1703 3045.32 1701.14 3053.06 1697.44 3060.18C1693.74 3067.3 1688.74 3073.49 1682.43 3078.75C1676.51 3083.71 1669.28 3087.73 1660.76 3090.82C1652.61 3093.61 1644.08 3095 1635.19 3095H1235V3017Z" fill="#E5E1E6"/>
<path d="M1889.94 2848H1703V2770H2172V2848H1986.19V3095H1889.94V2848Z" fill="#E5E1E6"/>
<path fill-rule="evenodd" clip-rule="evenodd" d="M2010.63 2455.51C2010.63 2445.93 2012.75 2437.07 2016.99 2428.91C2021.22 2420.75 2026.73 2413.83 2033.52 2408.15C2040.72 2402.13 2048.99 2397.51 2058.31 2394.32C2068.06 2390.77 2078.03 2389 2088.19 2389H2356.52C2367.96 2389 2378.57 2390.77 2388.31 2394.32C2398.06 2397.87 2406.32 2402.66 2413.11 2408.69C2420.31 2414.36 2425.82 2421.28 2429.64 2429.44C2433.87 2437.24 2436 2445.4 2436 2453.91L2435.37 2521.32C2435.37 2529.84 2433.25 2538 2429.01 2545.8C2426.02 2552.19 2421.99 2557.82 2416.92 2562.69C2417.23 2562.96 2417.52 2563.24 2417.81 2563.51C2423.36 2568.47 2427.44 2574.51 2430.03 2581.64C2433 2588.46 2434.47 2616.35 2434.47 2623.79V2657.89C2434.47 2666.26 2432.63 2674.01 2428.92 2681.13C2425.22 2688.26 2420.22 2694.46 2413.92 2699.73C2408 2704.69 2400.78 2708.72 2392.26 2711.82C2384.11 2714.61 2375.59 2716 2366.7 2716H2282.63V2648.52L2338.37 2648.28V2607H2087.57C2077.4 2607 2067.43 2605.23 2057.69 2601.68C2048.36 2598.49 2040.1 2593.88 2032.89 2587.85C2026.11 2582.17 2020.6 2575.25 2016.36 2567.09C2012.12 2558.94 2010 2550.07 2010 2540.49L2010.63 2455.51ZM2326 2470.36V2523.57H2120.62V2470.36H2326Z" fill="#E5E1E6"/>
<path d="M2109 2648.95V2716H2010V2618C2010 2618 2028.57 2648.95 2078.06 2648.95H2109Z" fill="#E5E1E6"/>
<defs>
<linearGradient id="paint0_linear_1105_24" x1="439.653" y1="261.019" x2="1112.41" y2="1990.01" gradientUnits="userSpaceOnUse">
<stop stop-color="#FFE27D"/>
<stop offset="0.505208" stop-color="#64E3FF"/>
<stop offset="1" stop-color="#9192FF"/>
</linearGradient>
</defs>
</svg>