<svg id="Layer_1" data-name="Layer 1" xmlns="http://www.w3.org/2000/svg" width="3200" height="1000" viewBox="0 0 400 400"><defs><style>.cls-1{fill:#b53a25;}.cls-2{fill:#b8cdb4;}.cls-3{fill:#a88771;}.cls-4{fill:#2d3837;}.cls-5{fill:#f74700;}</style></defs><path class="cls-1" d="M166.74,73.08l.1,4.24c-12.13,1.75-25.46,5.29-30.31,17.49-3.87,9.27-4.36,23.93-4.05,35,.34,8.37,1.45,23.07,1.77,31l18.45-.28c-.59-20.77-3.16-44.1,5-55.21,4.91-6.67,14.17-10.5,28.71-12.89,0-16.64.12-35.52.2-52.16,0-1.65-.28-1.93-1.07-2.54L166.81,24C166.31,37.68,166.29,54.92,166.74,73.08Z"/><path class="cls-1" d="M102.7,343.09c-3.31,4.6-11.56,9.68-16,13a58.54,58.54,0,0,1-15.34,8,80.33,80.33,0,0,1-16,3.74,122.93,122.93,0,0,1-15.43,1c-2.44,0-6,0-8.89-.11,4.53,7,22.22,14.31,22.22,14.31h0a7.2,7.2,0,0,0,3.3.74c7.44,0,12.48.43,24.74-2,14.41-2.83,30.93-10.58,39.56-22.9l.36-.5C113.79,354.12,108.49,348.89,102.7,343.09Z"/><path class="cls-1" d="M134,279.6l-1.8-43.92c38.8-.24,96.49-.45,142.12-.26,0,4.86,0,7.93.08,12.73,0,0-48.62,0-43.26.15s-51.86-.17-78,0c-1.69.34-1.32,1.94-1.29,2.89l1,47.74a42,42,0,0,0,3.85,17.33c-3-1.29-5.9-1.23-8.57-3.57C148.14,312.65,135.05,302.41,134,279.6Z"/><path class="cls-1" d="M186.47,335.46c-.73-.52-12.34-8.9-17.62-14.84.38,17.42,1.19,31.89,1.74,49.21-11.35.28-38.6-6.81-48.67-8.68A93.61,93.61,0,0,0,190,387.05c-.48-15-1.07-30.05-1.35-45.07C188.58,339.13,188.43,336.71,186.47,335.46Z"/><path class="cls-1" d="M399.91,63.38c-.09-7.2-.68-17.56-.56-24.58L379.64,23.43c.08,16.15,1.67,41.19,1.05,49.48,0,0-11.54-.72-20.29,4.48-5.89,3.5-13.91,15.31-15.53,24.79-.91,5.33-2.76,23.38-2.58,31.06.14,22.47,1.49,50.08,25.76,57.41a18.8,18.8,0,0,1-1.52-2.69c-1.5-13.91-3.69-35.37-3.57-49.34.87-27.17,5-45.58,36.51-45.82C400.36,83,399.58,73.29,399.91,63.38Z"/><path class="cls-1" d="M399.64,202.64c-1,.54-18.79-10.63-19.62-10.73.38,3.58-.19,8.3-2.95,10.91a3.31,3.31,0,0,1-2.25,1.33c-15.18,2.83-30.74,16.06-30.55,32.41.1,8.23-.28,15.95-.22,24.51.07,11-.4,31.49,4.35,40.88,3.47,6.85,12.53,12.13,16.53,12.79.08,0-1.68-32.59-.95-58.93.6-21.42,12-29.13,33.76-37.93C401,213.87,399.81,207.16,399.64,202.64Z"/><path class="cls-1" d="M332.1,360.4c5.74,2.68,29,7.06,37.79,4.86,3.75-.94,8,4.62,8.45,1.86.35-16,.25-33.94.14-49.53.85.12,15.66,12.08,17.39,13.38.82,1.22,2.33,2.42,2.36,3.66-.21,15.34,1.66,34.24-.33,49.46a4.31,4.31,0,0,1-2.79,2.59c-19.12,1.67-42.27-9.74-55.83-19.51A37.35,37.35,0,0,1,332.1,360.4Z"/><path class="cls-1" d="M319.53,352c-2.74-2.23-6.3-7.53-9.7-11.2-16.81,17.63-46.49,30.6-71.16,28.38l17.57,13.6c24.61,4,58.1-4.47,74.22-24A78.76,78.76,0,0,1,319.53,352Z"/><path class="cls-2" d="M164.41,23.42c1.86.1,4.11.73,4,3.55-.58,16-.6,32.58-.22,48.52a2.12,2.12,0,0,1-1.71,2.12c-37.81,7.32-32.87,35.11-32.74,66.17,0,4.53.16,10.73.44,14.91a1.83,1.83,0,0,0,1.86,1.71c11.41-.18,78,.16,112.87-.05,6.56-.14,12.73-.19,19.28-.22,2.65,0,3.62-.94,3.58-3.5-1-33.85,6.12-66.13-33-79.6a2.78,2.78,0,0,1-1.87-2.65c.21-16.71-.28-33.17-.31-49.87a2.12,2.12,0,0,1,1.89-2.11c25.78-2.79,54.05,10.44,67.86,31.53,1.87,2.85,3.45,3.2,5.52,0C323,36.3,337,30,353.63,24.84c8.14-2.51,17-1.06,23.22-1,3,0,4.13.66,4,3.82-.15,6.41.08,12.82.16,19.23,0,11.37-.06,21.59-.12,27.18a2.41,2.41,0,0,1-2.25,2.36c-28.84,1.94-33.49,20.15-34.59,45.7.17,30.21-2.79,65.47,35.18,70.44a1.84,1.84,0,0,1,1.58,1.71c.06,1.26.3,3.31.35,4.57.09,2.15-.34,3.32-2.41,3.93-4.38,1.29-15.44,4.59-20,8.78-6.52,6-13.93,16.67-13.7,27.76-.42,15.44-.5,30.89-.44,46.34,0,0,2.44,28.33,31.54,32,2.4.3,3.2.82,3.22,3.7.1,15.35.54,30.32-.4,46.21-.06,1-.72,2.54-2,2.74a35.42,35.42,0,0,1-7.76.08c-20.3-1-36.63-7.71-45.78-14.76-3.12-2.4-9.14-8.53-12.29-12a2.55,2.55,0,0,0-3.75-.07c-19.47,20.06-40,29.94-69,25.69-.22-16-.68-31.23-.7-47.38,0-2.28,1-3.35,2.49-3.95,7.17-2.79,29.32-1.42,32.21-30.55.53-17.47-.18-31.86,0-49.37-.13-.41-.91-1.19-1.48-.95-45.55-.21-98.65-.08-135.8.27-1.51,0-2.27.39-2.26,2.16.07,10.09.91,17.69,1.12,27.79.62,10.46,1.37,19.75,5.61,30.05,4.14,10,12,17.38,25.69,20.71,2.75.67,4.24,2.23,4.39,5.39.74,15,.89,32.08,1.36,47.1-13.1.26-26.09.13-38.81-4.52-12.88-4.7-19.41-11.59-28.09-20.28a3.12,3.12,0,0,0-4.81.49c-16,24.13-44.07,24.28-65.73,24.08-3.07,0-3.41-1.14-3.53-4.21-.64-15.5-.82-31.17-1.12-46.72a2.49,2.49,0,0,1,2.51-2.69C49,315.91,62.62,304,62.85,290.54c.1-5.87.37-13.61.36-19.48,0-31.2,1.73-54.43-34.4-67-.59-.21,0-5.9-.18-8.47a.6.6,0,0,1,.47-.64c17.44-3.83,30.95-20.14,32.82-37.58-.83-30,6.54-73.55-31.82-80a4.24,4.24,0,0,1-3.58-3.89C26,61.81,26,39.8,26.18,27.2c.08-5.38,1.86-5.83,6.4-5.91a134.78,134.78,0,0,1,19.74.89c15.42,2,33.44,16.56,42.3,32.77,1.35,2.48,2.68,1.89,3.53-.21,8.5-19.05,30.12-30,49.68-31.09Z"/><rect class="cls-3" x="303.18" y="26.94" width="10.19" height="168.19" transform="matrix(1, 0, 0, 1, -0.2, 0.54)"/><path class="cls-3" d="M353.86,68.09a16.11,16.11,0,0,1-.13-32.22h.14a16.1,16.1,0,0,1,16.1,16h0a16.13,16.13,0,0,1-16,16.25Zm0-22h-.06a5.92,5.92,0,0,0-4.09,10.14,5.84,5.84,0,0,0,4.14,1.7h.06a5.92,5.92,0,0,0,5.86-6h0a5.92,5.92,0,0,0-5.91-5.87Z"/><path class="cls-3" d="M313.46,121.73l-10.17-.52c.12-2.32,3.27-56.8,36.37-68l3.26,9.65c-13.5,4.57-20.77,19.94-24.48,32A125.72,125.72,0,0,0,313.46,121.73Z"/><rect class="cls-3" x="302.33" y="204.76" width="10.19" height="170.93" transform="translate(-0.59 0.62) rotate(-0.12)"/><path class="cls-3" d="M353.05,357.07h-.15a16.11,16.11,0,0,1,.14-32.22h.14a16.14,16.14,0,0,1,16,16.25h0a16.11,16.11,0,0,1-16.1,16Zm0-22a5.92,5.92,0,0,0-4.22,10.07,5.86,5.86,0,0,0,4.17,1.77,5.67,5.67,0,0,0,4.2-1.7A5.86,5.86,0,0,0,359,341h0a5.93,5.93,0,0,0-5.87-6Z"/><path class="cls-3" d="M307.73,398.87h-.15a16.11,16.11,0,0,1,.14-32.22h.14a16.12,16.12,0,0,1,16,16.24h0a16.13,16.13,0,0,1-16.1,16Zm0-22a5.92,5.92,0,0,0-.05,11.84,5.7,5.7,0,0,0,4.2-1.7,5.9,5.9,0,0,0,1.77-4.17h0a5.92,5.92,0,0,0-5.87-6Z"/><path class="cls-3" d="M307.73,33.35h-.15a16.1,16.1,0,0,1-16-16.24,16.14,16.14,0,0,1,16.11-16h.14a16.14,16.14,0,0,1,16,16.25h0a16.11,16.11,0,0,1-16.1,16Zm0-22a5.92,5.92,0,0,0-4.22,10.07,5.86,5.86,0,0,0,4.17,1.77,5.65,5.65,0,0,0,4.2-1.69,5.91,5.91,0,0,0,1.77-4.18h0a5.93,5.93,0,0,0-5.87-6Z"/><path class="cls-3" d="M339.24,341.17c-33.05-11.18-36.93-64.46-37.08-66.72l10.17-.67c0,.48,3.57,48.74,30.17,57.74Z"/><path class="cls-3" d="M183.81,284.62h-.14a16.11,16.11,0,0,1,.13-32.22h.14a16.14,16.14,0,0,1,16,16.25h0a16.11,16.11,0,0,1-16.1,16Zm0-22a5.91,5.91,0,0,0-5.91,5.87,5.91,5.91,0,0,0,5.86,6,5.7,5.7,0,0,0,4.2-1.7,5.86,5.86,0,0,0,1.77-4.17h0a5.93,5.93,0,0,0-5.87-6Z"/><path class="cls-3" d="M183.81,214.35h-.14a16.1,16.1,0,0,1-16-16.24,16.12,16.12,0,0,1,16.1-16h.14a16.12,16.12,0,0,1,16,16.24h0a16.11,16.11,0,0,1-16.1,16Zm0-22a5.92,5.92,0,0,0-5.91,5.87,5.85,5.85,0,0,0,1.69,4.21,5.94,5.94,0,0,0,4.17,1.77,5.66,5.66,0,0,0,4.2-1.7,5.86,5.86,0,0,0,1.77-4.17h0a5.93,5.93,0,0,0-5.87-6Z"/><rect class="cls-3" x="195.28" y="192.54" width="109.01" height="10.19"/><path class="cls-3" d="M196.54,274.05a35.21,35.21,0,0,1-6.38-.58l1.85-10c12,2.21,25.06-4.6,33.23-17.37,3.36-5.23,5.94-11.27,8.67-17.67,2.13-5,4.32-10.1,6.93-14.89,8.14-14.91,19.36-22.29,30-19.75l-2.36,9.91c-7-1.66-14.46,6.89-18.73,14.72-2.38,4.36-4.39,9-6.51,14-2.78,6.5-5.65,13.22-9.46,19.17C224.77,265.71,210.65,274.05,196.54,274.05Z"/><path class="cls-1" d="M300.22,153.27l3.76,2.45c1.18,5.38,2.32,11,3.13,15.51a37.12,37.12,0,0,1,4.24-.28l-2-2.78c-.35-2.69-.95-4.71-2.2-12A14.35,14.35,0,0,1,307,153c.38-6.9.74-13.81,1.22-20.71.61-8.81,1.46-17.6,2-26.41a26.21,26.21,0,0,0-3-14.18c-1.52-2.79-3.27-5.63-7-5.4s-5.17,3.21-6.49,6.14c-.55,1.22-1.2,2.4-1.81,3.59l-1.09-.13c-.43-2.78-1.75-20-2.55-25.81-1.38-10-3.35-19.81-12.77-26,0,0-6.6-3.21-9.1,1.45-.82,1.54-2.23,3-2.5,4.66a85.3,85.3,0,0,0-.58,9.6c0,.74,0,1.48-.05,2.21l-.73.13c-1.1-3-2.25-6-3.28-9A31.34,31.34,0,0,0,251,40.28a26.51,26.51,0,0,0-9.08-5.68c-6.82-2.36-12.89,2.62-12.45,9.67,0,.68.13,1.35.31,3.15a22.73,22.73,0,0,0-3.27-2.18A65.55,65.55,0,0,0,218,42c-6.49-1.7-12.07,3.18-10.81,9.55a14,14,0,0,0,3.2,6.23c2.28,2.59,5.13,4.7,7.74,7,.64.57,1.27,1.16,2.09,1.91a46.77,46.77,0,0,0-6,1.75c-4.92,2.2-5.87,7.62-1.86,11.09a15.61,15.61,0,0,0,5.66,3.11c4.19,1.22,8.5,2.08,12.79,2.94,5.5,1.09,11,1.91,16.53,3.1,2.13.46,4.51,1,5.69,3.49-2.4,1.57-4.82.59-7.18.62a84.72,84.72,0,0,0-11.28.49c-3.24.48-6,2.22-6.82,5.72-.63,2.88,1.35,5.92,4.73,7.75a7.49,7.49,0,0,0,1.33.59c5.57,1.69,11.09,3.56,16.73,5s11.23,2.26,16.83,3.48c2.45.54,4.87,1.34,6.41,3.84a11.34,11.34,0,0,1-4,.31c-2.9-.3-5.8-1-8.7-1-4.73.07-7.07,4.25-4.44,8a13.63,13.63,0,0,0,5.18,4.26,90.86,90.86,0,0,0,12.25,4.66C284.66,139.1,293.47,144.68,300.22,153.27Z"/><path class="cls-4" d="M298.69,145a12.67,12.67,0,0,1-1.36-3.45,1.16,1.16,0,0,0-.13-.27,37.05,37.05,0,0,1-3.39-2.55,23.31,23.31,0,0,0-5.33-3.59,120.12,120.12,0,0,0-14.54-5.32l-.23-.06a1.93,1.93,0,0,1-1.4-.84,2.14,2.14,0,0,1,0-1.8.81.81,0,0,1,1-.51l2.29.61c5.73,1.51,11.6,3.07,16.79,6.5.75.42,1.53.87,2.35,1.37-2.42-5.19-4.85-10-7.38-14.61a15.12,15.12,0,0,0-4.58-4.93A36.36,36.36,0,0,0,268.4,109c-6.93-1.34-13.85-2.72-20.55-4-.27-.06-.54-.1-.82-.14a5.9,5.9,0,0,1-3.17-1.16,1,1,0,0,1-.23-.12.76.76,0,0,1-.2-.91.86.86,0,0,1,.45-.43h0l-.56-.16.72.08a4,4,0,0,1,2.63-.13l.19,0c1.36.26,2.73.5,4.1.74,2.1.37,4.27.75,6.4,1.2,1.53.32,3.1.62,4.61.91,6.54,1.23,13.27,2.5,19.41,6.34l-2.3-3.06C274,101.43,268.75,94.46,263,88.08a23.72,23.72,0,0,0-7.92-5.7c-6.61-3-14.15-4.69-23.75-5.21l-.61,0a32.83,32.83,0,0,1-10.25-1.73.78.78,0,0,1-.51-.8.81.81,0,0,1,.67-.69,18.35,18.35,0,0,1,5.66.12,19,19,0,0,0,2.74.24,78.76,78.76,0,0,1,11.13.76,72,72,0,0,1,14.37,3.83l-.09-.08-.18-.17a188.08,188.08,0,0,0-26.78-21.23c-.54-.35-1.12-.66-1.72-1a11.2,11.2,0,0,1-4.46-3.56.61.61,0,0,1-.2-.19.73.73,0,0,1-.09-.74l0-.09a.82.82,0,0,1,1.12-.39,4.23,4.23,0,0,1,2.11.89l.31.2a212.7,212.7,0,0,1,23.19,16.32c3.73,3.09,7.28,6.44,11.23,10.34-.19-.5-.38-1-.56-1.49-1.25-3.33-2.42-6.47-3.63-9.55a61.43,61.43,0,0,0-4-7.84c-.9-1.59-1.84-3.24-2.67-4.92a67.78,67.78,0,0,0-4.9-8.05c-.68-1-1.38-2-2.1-3.16a.75.75,0,0,1,.08-.93.79.79,0,0,1,.5-.24l-.27-.33.41.32a.73.73,0,0,1,.29.07A9.66,9.66,0,0,1,246.77,47c.85,1.23,1.65,2.47,2.43,3.73l.36.61A83.2,83.2,0,0,1,255,62.1c.19.46.37.92.55,1.38q1.18,2.55,2.27,5.14c.1.18.19.36.3.53a14.72,14.72,0,0,1,1.26,2.93,8.25,8.25,0,0,0,2.08,3.79.78.78,0,0,1,.25.49,16.22,16.22,0,0,0,.48,2.46c1.23,2.67,2.56,5.3,4,7.84.82,1.13,1.7,2.24,2.59,3.37.59.75,1.18,1.5,1.75,2.25,2,2.68,4.24,5.33,6.37,7.88l2.1,2.53a3.31,3.31,0,0,1,.44.76,2.37,2.37,0,0,0,.19.39,6.41,6.41,0,0,0-.39-1.82,9.59,9.59,0,0,1-.41-1.72A113.42,113.42,0,0,1,278.56,85l0-1.9c.21-10.41-1.32-19.36-4.67-27.36l-.12-.24a1.86,1.86,0,0,1,0-2.13.8.8,0,0,1,.75-.31,3,3,0,0,1,2.36,2.26c2.62,6.63,5,13.19,4.9,20.44,0,1.62,0,3.24,0,4.87-.06,5.46-.12,11.1,0,16.64a28.27,28.27,0,0,0,4.68,15.78A55.41,55.41,0,0,1,292,123a3.59,3.59,0,0,0,.66,1c.22.23.35.25.43.23a1.9,1.9,0,0,0,0-.25,34.23,34.23,0,0,1,1.87-9,96.78,96.78,0,0,0,3.63-14.53c0-.15.05-.31.07-.47A4,4,0,0,1,300,97.07a.79.79,0,0,1,1.09.07,3.41,3.41,0,0,1,.67,3.35c0,.3-.1.58-.12.85a52.82,52.82,0,0,1-2.75,12.81c-3.09,8.08-3.1,15.62,0,23,.22.54.46,1.12.71,1.71C299.59,138.9,304.8,152.87,298.69,145Z"/><path class="cls-5" d="M311.8,157.72a5.14,5.14,0,0,0,1,.73c4.69,2.18,6.62,6.75,4.67,11.56-1.5,3.72-3,7.45-4.19,11.27-.89,2.81-2.63,5.33-2.81,8.36l-.39.5c.57.17.25-.34.38-.5.33,0,.73-.06.85-.41,1.09-3.14,3.23-5.67,4.86-8.5,1.8-3.13,3.77-6.16,5.64-9.25a8.63,8.63,0,0,1,5.62-4.08,8.91,8.91,0,0,1,10.22,5c1.74,4.21.32,9.34-3.55,11.19-6.14,2.92-12.12,6.21-18.63,8.31-.9.29-1.25.84-1.42,2,6.1-1.83,12.06-2.9,17.9-4.44,3.18-.83,6.37-1.6,9.56-.09,4.17,2,6,7.43,4,11.85-1.78,3.94-7.56,6.15-11.61,4.38-5.65-2.47-11.53-4.28-17.28-6.49-.45-.17-.89-.48-1.34,0-.08.67.53.77.91,1,5.15,3.21,10.27,6.45,15.47,9.57,5.75,3.45,6.36,11,.94,14.91a8.54,8.54,0,0,1-12.83-3c-1.7-3.46-3.32-7-4.92-10.48-1.21-2.66-2.11-5.58-4-8-.67.68-.36,1.3-.21,1.93,1.38,5.92,2.8,11.82,4.1,17.75.87,4-.17,7.27-3.61,9.72-2.81,2-6.75,2-10.18-.18-2.45-1.56-3.83-5.08-3.39-8.15.57-3.88,2.45-7.3,3.65-11,1-3.22,2.19-6.4,3.33-9.71a1.36,1.36,0,0,0-1.34.69c-2.66,4.43-5.22,8.92-8,13.3-1.86,3-3.62,6.07-7.7,6.64a8.89,8.89,0,0,1-7.38-15.46c1.63-1.42,3.69-2.06,5.61-2.92,5.32-2.41,10.66-4.79,15.83-7.63-.54-.7-1-.42-1.47-.3-6.68,1.69-13.36,3.37-20.08,4.88a8.83,8.83,0,0,1-10.78-10.23c1-5.19,6.52-8.53,11.1-6.8,5.89,2.23,11.85,4.27,17.8,6.3.93.32,1.6,1.58,3.1.79-5.17-3.56-10.43-6.72-15.76-9.72-4.21-2.37-6.88-6.07-6.49-10.14.3-3.13,3.71-7,6.62-7.58,4.16-.78,8.52,1,10.13,4.4,2.83,5.93,5.53,11.92,8.31,17.88.31.66.38,1.53,1.52,2-1.51-6.57-3-12.85-4.4-19.15-1.85-8.36.13-9.62,5.08-12.77A14,14,0,0,1,311.8,157.72Zm-9.61,37.33a5.2,5.2,0,0,0,5,5.79,5.6,5.6,0,0,0,5.36-5.11,5.3,5.3,0,0,0-5.06-5.3A4.89,4.89,0,0,0,302.19,195.05Z"/><path class="cls-4" d="M307.86,189.3a6.78,6.78,0,0,0-7.37,6.4,7.23,7.23,0,0,0,7,8c3.63.1,7.22-3.33,7.42-7.09A7.35,7.35,0,0,0,307.86,189.3Z"/><path class="cls-1" d="M99.87,257.47c-.08.48.47-3.54.8-5.17-1.16-3.48-.82-7-.52-10.58.2-2.38-.87-2.67-2.71-1.57a.23.23,0,0,0,.06.37,9.07,9.07,0,0,0-.07,3.74,1.26,1.26,0,0,0,0,1.37c-.55,4.1-1.12,8.19-1.68,12.29h0c-1,3.31-2.18,6.54-3.43,9.75l.12.05A63.7,63.7,0,0,0,90,274.5l-2.25,1,.24-.46c-.23-.32-1.09.08-1.44-.12-2.55,1.61-5.86.43-8.67.34a7.61,7.61,0,0,0-8.25,7.2c-.08.87.38,2-.58,2.51s-1.88-.51-2.64-1.09c-5-4.74-16.57-9.87-19-.25h0c-1.27,4.48,3.28,7.32,5.65,10.41,3.29,8.85-12.79-5.85-14.7-6.53h0c-8.59-7.37-24.67-3.57-19.6,9.92.94,6.11,12.56,11.53,10.49,16.22-3.11,2.64-13.88-4-19.17-2.16C4.7,312.47,2.47,317,5,321.78c7.16,9.09,2.9,8.47-3.47,15.41-3.43,3.34-.66,9.59,4,9.87,6.28,1.56,15.35-6.25,19.81.14,2.76,4.57,7.66,10,12.69,7.47,4.34-1.61,6.18-4.64,6-9.83h0c.17-.69-.22-1.91.48-2.09,4.82-1.27,6.64,4.49,9.94,8.28,3.36,3.94,10.38,2.85,13.56-1.19a1.22,1.22,0,0,1-.27,0,1.22,1.22,0,0,0,.27,0c2.81-3.37,3.48-8.15,3.1-12.53-1.89-7-3-18.53,6.72-16.06l3.31,1.36c4.17,3.68,11.66,2.83,12.4-4.76l.19-.05c-.37-6-3.6-12.37-8.85-15.7-1.14-.52-2.24-1.21-2.1-2.6,1-3.7,3.2-3.12,4.29-4.21,6.62-6.62,4.12-11.85,5.24-18.88h-.07s4.08-9.94,5.68-15.23Zm-56,87.31-.24-.09h0Z"/><path class="cls-4" d="M85.3,284.21a2.13,2.13,0,0,0-.81,2.17,42.36,42.36,0,0,0-7.89,9.37c-1.5.78-2.41,2.22-3.72,3.29a1.94,1.94,0,0,0-.61,1.26,12.67,12.67,0,0,0,5,11.52c2.87,1.45,3.81,2.27,3.51,2.6-.27.62-1.24.34-1.78.14-5.07-.76-8.8-7.05-9-12.75-13.06,11-15.64,22.34-7.15,36.87.22,1.61-1.08,2-2.23.1C55,330.17,54,320,58.79,311.9A57.69,57.69,0,0,0,43,326.16c-5.36,6.87-3.29,11.63-4.86,18.63l.41.74L37.09,345l.17-.27c-2.51-6.09,0-13.33,3.16-19.34A204.57,204.57,0,0,1,22,335.07c-2.52.61-9,6-10.76,3.63,10.47-6.35,23.15-11.52,31.5-17.59-7.61,2.27-15.51.51-22.9-.94-2-.33-4.17,0-6-1.35,3.8-2.85,9.4-.24,13.65.14,15.59,3.46,23.45-3.59,34.34-13.14-14.12,8.11-26.22-5.59-36.47-13.48-.54-.25-1.27-.82-.65-1.77,5.17,1,9,5.95,13.06,9,9.54,8.57,22.79,7.64,31.46,0,.19-1.58,2-.95,2.28-1.95.16-.52,1-1.61-.16-1.32-8.34,1-13.5-5.1-17.67-12.72a.52.52,0,0,1,.81-.64c2.91,2.51,5,5.73,8,8.17,9.34,7.51,17.23-3.63,20.48-7.78C82.59,283.85,85.3,284.21,85.3,284.21Z"/><rect class="cls-3" x="95.43" y="94.95" width="10.19" height="80.37"/><path class="cls-3" d="M146,69.33a16.11,16.11,0,0,1-.14-32.22H146a16.11,16.11,0,0,1,16.1,16h0a16.14,16.14,0,0,1-16,16.25Zm0-22h-.05A5.92,5.92,0,0,0,146,59.14H146a5.93,5.93,0,0,0,5.87-6A5.91,5.91,0,0,0,146,47.3Z"/><path class="cls-3" d="M105.57,123l-10.18-.53c.12-2.31,3.28-56.8,36.37-68L135,64.1c-13.51,4.57-20.77,19.93-24.49,32A126.05,126.05,0,0,0,105.57,123Z"/><path class="cls-3" d="M57.75,69.33h-.14a16.13,16.13,0,0,1-16-16.25l5.09,0-5.09,0a16.1,16.1,0,0,1,16.1-16h.14A16.1,16.1,0,0,1,69,64.7,16,16,0,0,1,57.75,69.33Zm0-22a5.92,5.92,0,0,0-.05,11.84h.05a5.92,5.92,0,0,0,0-11.84Z"/><path class="cls-3" d="M95.43,125.12A128,128,0,0,0,91,97.71C87.52,85.4,80.55,69.78,67.11,65.23l3.26-9.65c33.18,11.22,35.18,66.88,35.24,69.24l-10.18.3,5.09-.15Z"/><rect class="cls-3" x="94.4" y="219.48" width="10.19" height="65.66" transform="translate(-1.14 0.45) rotate(-0.26)"/><path class="cls-3" d="M145.15,358.31H145a16.11,16.11,0,0,1,.14-32.22h.14a16.11,16.11,0,0,1-.14,32.22Zm0-22a5.92,5.92,0,0,0-4.22,10.07,5.86,5.86,0,0,0,4.17,1.77,5.71,5.71,0,0,0,4.2-1.7,5.94,5.94,0,0,0,1.77-4.17l5.09,0-5.09,0a5.94,5.94,0,0,0-5.87-6Z"/><path class="cls-3" d="M131.34,342.41c-33-11.18-36.92-64.46-37.07-66.72l10.16-.67-5.08.33,5.08-.33c0,.48,3.58,48.74,30.18,57.74Z"/><path class="cls-5" d="M104.24,157.72a5.14,5.14,0,0,0,1,.73c4.69,2.18,6.62,6.75,4.68,11.56-1.51,3.72-3,7.45-4.2,11.27-.88,2.81-2.62,5.33-2.8,8.36l-.39.5c.57.17.25-.34.38-.5.33,0,.72-.06.85-.41,1.08-3.14,3.23-5.67,4.85-8.5,1.8-3.13,3.78-6.16,5.65-9.25a8.59,8.59,0,0,1,5.61-4.08,8.9,8.9,0,0,1,10.22,5c1.74,4.21.33,9.34-3.54,11.19-6.14,2.92-12.13,6.21-18.64,8.31-.9.29-1.24.84-1.41,2,6.09-1.83,12-2.9,17.9-4.44,3.18-.83,6.36-1.6,9.55-.09,4.18,2,6,7.43,4,11.85-1.78,3.94-7.56,6.15-11.61,4.38-5.65-2.47-11.54-4.28-17.28-6.49-.45-.17-.89-.48-1.35,0-.07.67.53.77.91,1,5.15,3.21,10.28,6.45,15.48,9.57,5.74,3.45,6.36,11,.94,14.91a8.55,8.55,0,0,1-12.84-3q-2.54-5.19-4.91-10.48c-1.21-2.66-2.12-5.58-4-8-.68.68-.36,1.3-.22,1.93,1.38,5.92,2.81,11.82,4.11,17.75.86,4-.18,7.27-3.62,9.72-2.8,2-6.75,2-10.17-.18-2.46-1.56-3.83-5.08-3.39-8.15.56-3.88,2.45-7.3,3.64-11,1-3.22,2.19-6.4,3.34-9.71a1.35,1.35,0,0,0-1.34.69c-2.66,4.43-5.22,8.92-8,13.3-1.86,3-3.62,6.07-7.7,6.64a8.89,8.89,0,0,1-7.39-15.46c1.64-1.42,3.69-2.06,5.61-2.92,5.33-2.41,10.67-4.79,15.83-7.63-.53-.7-1-.42-1.46-.3-6.68,1.69-13.36,3.37-20.09,4.88a8.82,8.82,0,0,1-10.77-10.23c1-5.19,6.51-8.53,11.1-6.8,5.89,2.23,11.84,4.27,17.8,6.3.93.32,1.59,1.58,3.1.79-5.18-3.56-10.44-6.72-15.76-9.72C73.67,180.78,71,177.08,71.4,173c.29-3.13,3.7-7,6.62-7.58,4.16-.78,8.51,1,10.13,4.4,2.83,5.93,5.53,11.92,8.31,17.88.3.66.38,1.53,1.51,2-1.51-6.57-3-12.85-4.4-19.15-1.84-8.36.14-9.62,5.09-12.77A14,14,0,0,1,104.24,157.72Zm-9.6,37.33a5.2,5.2,0,0,0,5,5.79,5.59,5.59,0,0,0,5.35-5.11,5.3,5.3,0,0,0-5.06-5.3A4.87,4.87,0,0,0,94.64,195.05Z"/><path class="cls-4" d="M100.3,189.3a6.78,6.78,0,0,0-7.36,6.4,7.23,7.23,0,0,0,7,8c3.64.1,7.23-3.33,7.43-7.09A7.36,7.36,0,0,0,100.3,189.3Z"/></svg>